<?xml version="1.0" encoding="UTF-8" standalone="no"?>
<svg
   xmlns:dc="http://purl.org/dc/elements/1.1/"
   xmlns:cc="http://creativecommons.org/ns#"
   xmlns:rdf="http://www.w3.org/1999/02/22-rdf-syntax-ns#"
   xmlns:svg="http://www.w3.org/2000/svg"
   xmlns="http://www.w3.org/2000/svg"
   id="92a8231e-d978-11ee-b16d-0242ac110002"
   version="1.1"
   width="612.0pt"
   viewBox="0 0 612.0 792.0"
   height="792.0pt">
  <metadata
     id="metadata177">
    <rdf:RDF>
      <cc:Work
         rdf:about="">
        <dc:format>image/svg+xml</dc:format>
        <dc:type
           rdf:resource="http://purl.org/dc/dcmitype/StillImage" />
      </cc:Work>
    </rdf:RDF>
  </metadata>
  <defs
     id="defs175" />
  <g
     id="g2" />
  <g
     id="g166">
    <g
       id="g164">
      <path
         id="path4"
         d="M 378.8059,324.3292 L 394.6491,325.0842 406.7202,325.0842 406.7202,321.3119 378.8059,321.3119 378.8059,324.3292 Z"
         style="fill-rule:evenodd;fill:#02933e;" />
      <path
         id="path6"
         d="M 148.6988,289.6247 C 150.887,289.6247 194.2443,274.5407 198.1327,272.6673 213.8069,265.1144 227.439,258.9848 242.2507,251.1481 247.8553,259.5182 257.3396,270.7582 257.3396,284.3439 257.3396,291.9077 178.6402,327.3472 164.5419,327.3472 L 150.985,331.9474 C 151.0675,327.14 156.8684,312.7575 156.1586,308.6279 155.5966,305.3543 146.7995,293.9981 146.4351,289.6247 L 148.6988,289.6247 Z M 350.891,275.2901 C 350.891,264.1831 361.5053,254.9054 368.2436,250.3932 382.0339,259.6279 445.3546,288.0054 464.8128,289.6247 L 451.5099,305.0444 459.8196,331.0303 C 449.9464,330.9063 407.0271,314.3888 398.1688,310.2479 388.4859,305.7221 379.2424,301.7734 370.6696,296.2518 362.1016,290.7336 350.891,288.4113 350.891,275.2901 Z M 358.436,248.8846 L 357.6811,249.6389 356.9268,250.3932 356.1725,251.1481 354.6633,251.902 353.909,252.6569 353.1545,253.4112 352.4002,254.1655 351.6459,254.9197 350.891,255.6747 350.1367,256.4289 349.3822,257.1834 348.6275,257.9377 347.8737,259.4469 347.1187,260.2012 344.8108,265.4643 C 343.3377,265.0768 329.0906,257.3049 325.2576,255.6569 318.9361,252.9396 308.7247,251.902 299.5884,251.902 284.3088,251.902 262.4519,266.9915 261.8661,266.9915 261.698,266.9915 244.5137,243.836 244.5137,239.0766 L 244.5137,234.55 C 244.5137,222.2595 291.7351,217.9519 308.6422,217.9519 L 313.923,217.9519 C 326.5029,217.9519 337.3498,220.0892 347.28,222.3179 357.9298,224.7073 365.9799,227.8049 365.9799,240.5858 L 365.9799,242.0944 C 365.9799,244.4124 361.9245,247.0546 360.6991,248.8846 L 358.436,248.8846 Z M 381.0694,308.4859 L 408.9837,321.3119 436.7621,330.8366 470.0943,340.173 C 470.0122,336.5021 465.9972,326.7356 464.9662,323.4216 464.3402,321.4107 459.532,307.2506 459.532,306.9773 459.532,304.5106 473.91,292.0939 475.3752,286.6069 465.7981,286.6069 429.7674,272.82 421.0623,269.2475 402.0784,261.4574 389.0939,254.9031 372.0157,245.8666 374.6936,240.2862 371.6628,229.3804 368.8411,226.4079 363.9651,221.2727 360.6783,220.3628 352.8476,218.2588 338.8926,214.5099 326.9714,212.6709 309.3965,212.6709 L 299.5884,212.6709 C 287.115,212.6709 273.4122,215.0486 262.7831,217.3597 255.3188,218.9825 236.9692,226.1107 236.9692,233.7957 L 236.9692,236.8135 C 236.9692,241.3016 238.3864,242.4928 238.4784,246.6211 235.8317,247.2375 219.6602,256.6415 215.0952,258.6976 207.1176,262.2898 198.7328,266.3828 190.293,269.3542 178.3402,273.563 149.4293,285.5417 136.6277,286.6069 137.7626,291.4799 148.6988,308.0154 148.6988,309.2404 148.6988,316.6177 141.9085,330.9463 141.9085,337.1551 L 141.9085,339.4188 C 149.8812,339.2406 167.4551,332.9069 175.4088,330.6691 182.2504,328.7446 202.7968,319.8027 207.5457,319.8027 207.9946,321.4838 207.7222,322.0662 209.8088,322.0662 L 236.2149,322.0662 236.2149,318.2939 210.5635,318.2939 C 213.3957,315.8322 233.677,307.2205 239.2442,303.9709 246.3775,299.8076 262.8248,294.0743 265.808,286.0109 L 263.3753,275.2901 C 268.1446,268.1675 288.861,257.1834 301.0972,257.1834 L 304.1156,257.1834 C 316.6844,257.1834 338.867,266.3373 343.3465,273.0266 343.3465,289.037 348.1782,288.645 357.1205,295.4663 362.9715,299.9291 374.0627,305.124 381.0694,308.4859 Z"
         style="fill-rule:evenodd;fill:#02933e;" />
      <path
         id="path8"
         d="M 209.0267,331.6854 L 209.0663,334.991 237.123,331.8351 236.1531,327.6853 209.0267,331.6854 Z"
         style="fill-rule:evenodd;fill:#02933e;" />
      <path
         id="path10"
         d="M 378.0514,334.1373 L 405.9663,338.6638 405.9663,334.8916 403.7146,334.8184 378.0514,331.1193 378.0514,334.1373 Z"
         style="fill-rule:evenodd;fill:#02933e;" />
      <path
         id="path12"
         d="M 315.4318,345.4539 L 317.6953,348.4719 C 321.8318,345.7022 325.9941,340.3005 325.9941,333.383 L 321.4676,333.383 C 321.335,339.3371 317.8501,341.8429 315.4318,345.4539 Z"
         style="fill-rule:evenodd;fill:#02933e;" />
      <path
         id="path14"
         d="M 210.5635,346.2088 C 210.5635,351.3799 232.8554,341.8074 238.6322,341.6431 L 237.7235,337.9096 C 234.3443,338.1908 210.5635,344.6318 210.5635,346.2088 Z"
         style="fill-rule:evenodd;fill:#02933e;" />
      <path
         id="path16"
         d="M 375.6342,343.9066 C 381.4728,344.4184 397.4896,351.4897 402.1941,351.4897 403.7383,351.4897 403.5812,349.9355 403.6513,348.6336 L 376.5696,340.1795 375.6342,343.9066 Z"
         style="fill-rule:evenodd;fill:#02933e;" />
      <path
         id="path18"
         d="M 332.0299,349.9804 L 337.3114,343.9453 333.3676,347.5459 332.6586,347.0886 336.2198,338.0424 332.0299,337.9096 325.5027,350.1391 329.0121,353.7527 332.0299,350.7354 329.6047,352.8368 328.8863,352.3701 332.1124,348.5315 332.9103,349.1006 332.0299,349.9804 Z"
         style="fill-rule:evenodd;fill:#02933e;" />
      <path
         id="path20"
         d="M 303.9988,350.6068 L 294.9427,336.1542 295.8164,335.6465 292.0441,335.6465 C 292.0441,343.6367 296.3061,349.7901 301.0972,352.9984 L 303.9988,350.6068 Z"
         style="fill-rule:evenodd;fill:#02933e;" />
      <path
         id="path22"
         d="M 213.5815,358.2799 L 215.2167,361.5943 240.7415,350.7354 C 240.5922,344.0426 233.3552,349.683 228.4174,351.9909 223.3688,354.3509 218.3598,355.9871 213.5815,358.2799 Z"
         style="fill-rule:evenodd;fill:#02933e;" />
      <path
         id="path24"
         d="M 430.1083,353.7527 C 427.9873,353.7527 423.2915,348.4719 422.564,348.4719 419.6794,348.4719 422.2896,348.2405 420.0295,349.5857 L 430.2892,356.9521 439.1621,347.7174 C 439.1473,347.7052 437.7542,346.9627 437.6529,346.9627 436.507,346.9627 431.2542,353.7527 430.1083,353.7527 Z"
         style="fill-rule:evenodd;fill:#02933e;" />
      <path
         id="path26"
         d="M 172.8408,348.4719 C 172.8408,349.3746 180.5613,356.0162 181.8945,356.0162 L 182.6488,356.0162 C 184.1811,356.0162 190.8467,350.504 191.7024,349.2262 191.6876,349.2144 190.2952,348.4719 190.1931,348.4719 189.3114,348.4719 183.6024,352.8496 181.8945,353.7527 180.4362,352.7765 174.9685,346.9627 174.35,346.9627 173.6787,346.9627 172.8408,347.8006 172.8408,348.4719 Z"
         style="fill-rule:evenodd;fill:#02933e;" />
      <path
         id="path28"
         d="M 372.7702,352.9984 L 399.0837,364.286 399.9306,361.2977 C 395.271,360.2121 377.5305,349.9804 375.0337,349.9804 373.6782,349.9804 373.0811,351.7003 372.7702,352.9984 Z"
         style="fill-rule:evenodd;fill:#02933e;" />
      <path
         id="path30"
         d="M 277.7095,364.315 L 330.5211,364.315 330.5211,358.2799 277.7095,358.2799 277.7095,364.315 Z"
         style="fill-rule:evenodd;fill:#20221d;" />
      <path
         id="path32"
         d="M 432.372,368.8422 C 429.1954,368.8422 423.7864,362.052 422.564,362.052 419.6794,362.052 422.2896,361.8202 420.3005,362.8065 421.4269,364.4887 430.2018,371.8596 432.372,371.8596 432.5534,371.8596 443.531,362.5336 443.4677,361.2098 443.2077,355.7636 434.0793,368.8422 432.372,368.8422 Z"
         style="fill-rule:evenodd;fill:#02933e;" />
      <path
         id="path34"
         d="M 179.0134,371.7266 L 192.1388,363.4431 191.7024,362.8065 C 188.7596,361.4455 183.059,367.0518 180.3669,368.8645 L 169.6173,359.8864 168.589,361.0096 179.0134,371.7266 Z"
         style="fill-rule:evenodd;fill:#02933e;" />
      <path
         id="path36"
         d="M 368.9979,360.543 C 368.9979,362.1673 391.6298,376.3866 393.1405,376.3866 393.8118,376.3866 394.6491,375.5487 394.6491,374.8774 394.6491,372.6115 373.6085,359.9211 370.5071,358.2799 370.0849,358.8873 368.9979,360.1424 368.9979,360.543 Z"
         style="fill-rule:evenodd;fill:#02933e;" />
      <path
         id="path38"
         d="M 218.8623,371.1053 C 218.8623,372.3401 219.3142,373.3688 220.3711,373.3688 221.999,373.3688 244.5137,359.6728 244.5137,359.0342 244.5137,357.7994 244.0619,356.7707 243.005,356.7707 241.1938,356.7707 218.8623,370.0089 218.8623,371.1053 Z"
         style="fill-rule:evenodd;fill:#02933e;" />
      <path
         id="path40"
         d="M 224.8981,383.9311 C 224.9124,383.9429 226.3055,384.6854 226.4069,384.6854 228.4133,384.6854 247.7595,369.2467 249.15,367.2426 L 247.5315,365.07 C 243.7524,367.0696 225.8265,380.4529 224.8981,383.9311 Z"
         style="fill-rule:evenodd;fill:#02933e;" />
      <path
         id="path42"
         d="M 166.0512,371.1053 C 167.2355,372.8744 177.8611,383.1768 179.6308,383.1768 L 180.3858,383.1768 C 182.7382,383.1768 191.9002,375.3269 193.2111,373.3688 189.5783,371.6885 182.204,380.9131 180.3858,380.9131 176.7548,380.9131 168.6275,368.1729 166.0512,371.1053 Z"
         style="fill-rule:evenodd;fill:#02933e;" />
      <path
         id="path44"
         d="M 231.5094,393.5602 L 234.1298,396.181 255.2435,375.4642 252.2371,372.7929 231.5094,393.5602 Z"
         style="fill-rule:evenodd;fill:#02933e;" />
      <path
         id="path46"
         d="M 432.372,380.9131 C 429.2048,380.9131 422.5807,371.6164 418.4388,373.8419 L 432.4501,384.0162 445.9517,371.1053 C 441.4534,369.0247 435.2108,380.9131 432.372,380.9131 Z"
         style="fill-rule:evenodd;fill:#02933e;" />
      <path
         id="path48"
         d="M 364.4713,368.8422 C 364.4713,371.1363 383.4882,385.7868 386.4414,387.8127 L 388.8571,385.9085 365.9799,366.5788 C 365.5577,367.1861 364.4713,368.4413 364.4713,368.8422 Z"
         style="fill-rule:evenodd;fill:#02933e;" />
      <path
         id="path50"
         d="M 289.781,384.6854 L 319.2045,384.6854 C 326.6244,384.6854 330.5211,376.9048 330.5211,368.8422 L 277.7095,368.8422 C 277.8893,376.9131 281.5908,384.6854 289.781,384.6854 Z"
         style="fill-rule:evenodd;fill:#20221d;" />
      <path
         id="path52"
         d="M 432.372,392.23 C 429.6389,390.4 421.8923,381.4367 419.3533,384.9391 L 433.1263,395.2477 C 434.6578,394.2221 446.5216,383.0502 446.4855,382.3345 446.2834,378.2972 435.0374,390.4449 432.372,392.23 Z"
         style="fill-rule:evenodd;fill:#02933e;" />
      <path
         id="path54"
         d="M 358.307,377.0243 L 378.9676,398.4274 381.0996,395.9744 360.8276,374.2392 358.307,377.0243 Z"
         style="fill-rule:evenodd;fill:#02933e;" />
      <path
         id="path56"
         d="M 181.14,394.4935 C 183.9365,390.317 193.5824,387.2421 191.7024,383.1768 189.5041,384.6484 180.8776,391.4757 178.8765,391.4757 176.5275,391.4757 170.3893,382.0284 166.0512,381.6676 167.5698,387.3563 176.874,393.5899 181.14,394.4935 Z"
         style="fill-rule:evenodd;fill:#02933e;" />
      <path
         id="path58"
         d="M 239.3909,403.8423 L 242.5058,405.26 260.9951,381.7962 258.1695,379.463 239.3909,403.8423 Z"
         style="fill-rule:evenodd;fill:#02933e;" />
      <path
         id="path60"
         d="M 289.0261,391.4757 L 289.0261,392.9842 C 289.0261,394.7229 289.5511,395.2477 291.2896,395.2477 L 317.6953,395.2477 C 319.434,395.2477 319.9588,394.7229 319.9588,392.9842 L 319.9588,391.4757 C 319.9588,389.737 319.434,389.212 317.6953,389.212 L 291.2896,389.212 C 289.5511,389.212 289.0261,389.737 289.0261,391.4757 Z"
         style="fill-rule:evenodd;fill:#20221d;" />
      <path
         id="path62"
         d="M 352.2386,383.7695 C 354.0617,386.4121 369.4076,407.3188 370.5071,407.3188 373.3914,407.3188 370.7815,407.5507 373.2225,406.2324 L 354.5016,381.506 352.2386,383.7695 Z"
         style="fill-rule:evenodd;fill:#02933e;" />
      <path
         id="path64"
         d="M 249.0403,411.0911 C 249.0403,412.3259 249.4922,413.3546 250.5495,413.3546 253.202,413.3546 266.0715,391.1622 267.9139,387.6767 L 264.1292,386.1942 C 263.0862,390.1014 249.0403,410.1707 249.0403,411.0911 Z"
         style="fill-rule:evenodd;fill:#02933e;" />
      <path
         id="path66"
         d="M 432.372,405.0554 L 420.4102,396.0931 418.8674,398.1579 433.2119,408.1632 446.7066,395.2477 C 446.6916,395.2355 445.2992,394.4935 445.1974,394.4935 443.6848,394.4935 434.6419,403.5357 432.372,405.0554 Z"
         style="fill-rule:evenodd;fill:#02933e;" />
      <path
         id="path68"
         d="M 165.2962,395.2477 C 166.4235,396.9306 177.1509,407.3188 178.8765,407.3188 L 179.6308,407.3188 C 181.1713,407.3188 192.2749,398.9099 193.0604,397.6622 L 191.6929,395.9898 179.6308,405.0554 C 178.0461,403.994 167.6493,394.4935 167.5599,394.4935 166.6795,394.4935 165.4748,395.0302 165.2962,395.2477 Z"
         style="fill-rule:evenodd;fill:#02933e;" />
      <path
         id="path70"
         d="M 330.5211,398.2657 C 330.5211,407.3738 338.0789,418.7834 338.8199,427.6892 345.6981,427.5361 340.1681,419.1804 338.5368,413.638 337.2525,409.2744 333.856,400.5669 333.5391,396.7565 332.0754,396.8786 330.5211,396.721 330.5211,398.2657 Z"
         style="fill-rule:evenodd;fill:#02933e;" />
      <path
         id="path72"
         d="M 345.3841,389.6748 L 359.9833,415.7719 363.9388,414.7353 348.3679,387.3672 345.3841,389.6748 Z"
         style="fill-rule:evenodd;fill:#02933e;" />
      <path
         id="path74"
         d="M 258.4997,419.9826 L 261.9927,420.958 274.6624,392.3223 271.73,391.5018 258.4997,419.9826 Z"
         style="fill-rule:evenodd;fill:#02933e;" />
      <path
         id="path76"
         d="M 432.4871,418.0058 L 416.5282,406.5646 C 416.5162,406.5789 415.7737,407.972 415.7737,408.0731 415.7737,410.2506 429.9828,420.0538 432.6246,421.9188 L 449.5732,405.2065 448.153,403.4794 432.4871,418.0058 Z"
         style="fill-rule:evenodd;fill:#02933e;" />
      <path
         id="path78"
         d="M 269.2278,426.1182 L 273.1829,426.18 C 274.1434,422.0568 276.8795,413.2019 278.4539,409.5721 279.6967,406.7059 280.0371,405.0079 281.1871,401.741 282.634,397.6276 285.1467,396.1342 279.4351,396.0758 L 269.2278,426.1182 Z"
         style="fill-rule:evenodd;fill:#02933e;" />
      <path
         id="path80"
         d="M 338.0656,394.4935 C 338.0656,395.5187 349.5242,422.4077 350.891,422.4077 352.1258,422.4077 353.1545,421.9565 353.1545,420.8992 353.1545,419.1329 341.3747,392.9842 340.3287,392.9842 339.0939,392.9842 338.0656,393.4361 338.0656,394.4935 Z"
         style="fill-rule:evenodd;fill:#02933e;" />
      <path
         id="path82"
         d="M 162.1692,405.7192 C 163.2246,407.222 178.1924,420.8992 178.8765,420.8992 182.0047,420.8992 195.4806,410.3176 196.8326,408.2245 L 195.3031,406.3297 179.5158,418.0058 163.8969,403.6377 162.1692,405.7192 Z"
         style="fill-rule:evenodd;fill:#02933e;" />
      <path
         id="path84"
         d="M 162.3693,418.7454 C 163.854,420.9877 168.3869,425.5423 170.8788,427.3877 176.5211,431.5667 173.9871,431.0472 181.14,434.4793 182.4619,433.5941 196.2291,422.7747 196.2291,422.4077 196.2291,419.5234 196.4603,422.1336 195.2646,419.8502 L 179.4668,430.8836 164.4515,417.0176 162.3693,418.7454 Z"
         style="fill-rule:evenodd;fill:#02933e;" />
      <path
         id="path86"
         d="M 432.372,430.7072 C 431.4644,430.7072 419.1985,421.4276 417.192,420.035 L 414.7917,421.9486 432.4976,435.3736 449.8861,419.2283 447.4609,417.1269 C 445.496,418.4428 432.9088,430.7072 432.372,430.7072 Z"
         style="fill-rule:evenodd;fill:#02933e;" />
      <path
         id="path88"
         d="M 160.6604,432.1249 L 177.3678,447.0531 181.6488,446.98 197.1451,435.0721 194.6782,432.9138 179.4713,443.7302 162.3882,430.0432 160.6604,432.1249 Z"
         style="fill-rule:evenodd;fill:#02933e;" />
      <path
         id="path90"
         d="M 432.3235,444.2296 L 416.5282,432.9703 C 416.5162,432.985 415.7737,434.3775 415.7737,434.4793 415.7737,436.7498 431.4064,448.0596 433.1263,448.0596 434.02,448.0596 450.1085,433.8956 451.3425,432.1249 L 449.5336,429.7264 432.3235,444.2296 Z"
         style="fill-rule:evenodd;fill:#02933e;" />
      <path
         id="path92"
         d="M 160.0154,442.7781 L 178.1223,458.2981 180.9914,458.4247 196.8929,445.9054 194.5225,444.0253 179.6308,454.8492 C 177.7702,453.603 163.5875,441.2695 163.0334,441.2695 161.8099,441.2695 160.6328,442.1742 160.0154,442.7781 Z"
         style="fill-rule:evenodd;fill:#02933e;" />
      <path
         id="path94"
         d="M 432.372,454.8492 L 417.192,444.1776 414.8039,446.0837 432.372,459.3758 C 435.9103,457.0064 450.2766,445.6062 451.2332,442.0238 451.2182,442.0114 449.8258,441.2695 449.7244,441.2695 448.4827,441.2695 434.6586,453.3177 432.372,454.8492 Z"
         style="fill-rule:evenodd;fill:#02933e;" />
      <path
         id="path96"
         d="M 432.4323,465.4862 C 429.6036,463.9468 415.7737,452.1357 415.7737,456.3584 415.7737,458.8039 429.8113,468.2238 432.5899,470.2022 L 451.3425,454.0038 449.5687,451.6389 432.4323,465.4862 Z"
         style="fill-rule:evenodd;fill:#02933e;" />
      <path
         id="path98"
         d="M 160.6604,454.0038 L 177.3678,468.9323 181.6586,468.8733 197.3196,457.6071 194.7174,454.8453 179.3774,465.7186 162.3882,451.9223 160.6604,454.0038 Z"
         style="fill-rule:evenodd;fill:#02933e;" />
      <path
         id="path100"
         d="M 314.6775,482.7641 C 315.6093,484.1555 316.8736,485.7815 319.2045,485.7815 321.8052,485.7815 322.1254,485.2239 324.4853,485.0276 325.1746,484.5659 326.749,483.7992 326.749,482.7641 326.749,479.973 322.8887,478.2376 319.9588,478.2376 317.1638,478.2376 316.5509,478.9734 315.4318,480.5004 317.1238,480.1065 317.1668,479.7461 319.2045,479.7461 L 321.4676,479.7461 C 323.5052,479.7461 323.5478,480.1065 325.394,480.5395 L 324.4853,484.2727 318.4496,484.2727 C 315.1243,484.2727 317.5875,482.633 314.6775,480.5004 L 314.6775,482.7641 Z"
         style="fill-rule:evenodd;fill:#005919;" />
      <path
         id="path102"
         d="M 248.2994,574.8154 C 261.0353,577.7754 278.809,583.8599 294.3088,583.8599 L 316.1841,583.8599 C 326.2434,583.8599 331.8272,581.4834 341.0782,580.838 348.0357,580.354 357.047,575.2994 362.6851,574.9707 L 381.068,606.4921 C 365.1852,614.1191 331.022,620.8278 307.1336,620.8278 L 305.6257,620.8278 C 291.8132,620.8278 277.0508,619.1435 265.3388,616.6027 258.7357,615.1717 254.0959,613.7768 247.832,612.2282 241.452,610.6524 235.6888,607.5989 230.5423,606.2705 L 248.2994,574.8154 Z M 285.7077,480.6795 C 290.5089,483.8732 295.5981,486.0537 300.8396,487.5344 306.2183,489.0544 311.7629,489.8491 317.3377,490.2487 320.1997,489.1977 323.6302,488.2371 324.4867,485.0283 325.1758,484.5654 326.7485,483.8009 326.7485,482.7619 326.7485,479.9693 322.8883,478.2382 319.9599,478.2382 317.1627,478.2382 316.5505,478.9725 315.4317,480.5 317.125,480.1065 317.1688,479.7461 319.203,479.7461 L 321.4693,479.7461 C 323.502,479.7461 323.5503,480.1065 325.3929,480.5377 L 324.4867,484.2728 318.4535,484.2728 C 315.1241,484.2728 317.5865,482.6352 314.6777,480.5 L 314.6777,482.7619 313.8107,481.2962 C 300.9075,481.2525 293.6439,476.5599 286.0063,471.445 285.6987,475.1515 284.4999,474.209 284.4999,477.4842 L 284.4999,478.2382 C 284.4999,479.8004 284.8693,479.7928 285.7077,480.6795 Z M 315.2417,491.1474 C 310.2867,490.7026 305.3603,489.9154 300.5531,488.5568 295.099,487.0157 289.9721,484.7282 285.4649,481.7923 L 286.2234,490.2834 288.2184,489.4148 C 290.3641,492.6794 299.2412,499.364 304.1193,499.364 L 318.4535,499.364 C 320.6038,499.364 319.8272,499.1227 320.7124,497.8546 317.3181,497.8546 313.1668,497.3087 313.1668,494.0788 313.1668,492.6734 314.0097,491.8124 315.2417,491.1474 Z M 283.7474,462.3945 C 283.7474,460.8278 285.9505,458.6202 286.7648,458.6202 287.662,458.6202 297.2915,463.8075 300.5033,464.4966 306.3601,465.7481 310.6516,466.9183 317.695,466.9183 316.0544,469.162 312.4143,468.8273 312.4143,472.202 312.4143,473.0117 314.6204,475.2208 316.1841,475.2208 L 319.203,475.2208 C 321.9428,475.2208 321.8508,474.3221 324.4867,473.7114 L 326.5389,478.3377 326.1212,479.1143 324.639,477.3319 C 313.0959,477.4842 308.628,478.3317 299.8881,474.9177 296.9718,473.7808 292.7753,472.2397 290.7155,470.5101 287.5459,467.8517 287.5624,465.255 283.7474,466.1673 L 283.7474,462.3945 Z M 162.2761,470.6956 L 181.1853,484.3241 196.9852,472.202 C 198.2081,474.7549 199.6904,481.7486 201.138,485.4008 202.9038,489.8461 204.475,493.355 206.274,497.6133 209.1767,504.4623 214.9595,514.7417 219.426,519.9259 224.8499,526.2305 228.3121,533.4036 234.5141,539.5378 236.5121,541.5147 252.0602,556.538 252.0602,557.4533 252.0602,558.1243 235.0479,587.1531 233.1977,590.6485 227.4541,587.6115 213.3913,573.4236 208.1136,568.2077 202.5615,562.7174 191.2597,548.3817 187.5382,541.2523 183.3959,533.3282 174.0318,517.7545 172.1333,509.1217 170.8727,503.3781 167.9293,497.9978 166.4937,490.6196 165.2346,484.1552 162.2761,477.0876 162.2761,470.6956 Z M 379.5586,589.8975 L 359.9467,557.4533 C 361.7155,554.8114 373.619,542.6109 376.7268,539.5257 382.3422,533.954 388.1869,526.8005 392.688,520.0315 401.5229,506.7468 410.9367,489.7285 415.0202,472.202 418.7507,473.1987 428.7527,483.5204 430.8638,483.5204 432.9326,483.5204 445.7484,471.7557 449.7232,470.6956 449.5393,479.161 442.9814,500.3517 440.3923,508.1386 436.3933,520.1672 430.6738,530.2822 424.8518,540.1244 414.4773,557.6569 396.1125,578.8114 379.5586,589.8975 Z M 279.0925,436.8686 C 279.0774,436.6032 283.2694,434.0262 283.8862,433.8618 286.4345,433.2029 288.3496,432.9722 291.29,432.9722 L 320.7124,432.9722 C 322.4058,432.9722 322.3665,433.5693 323.7312,434.4816 340.3544,434.4816 362.6127,452.8299 368.7484,463.4003 376.1553,476.1693 375.8311,472.582 379.3716,489.7435 381.9034,502.0194 381.8521,510.0038 387.8582,518.9759 384.2573,524.3592 376.3679,534.6657 371.8306,539.1608 368.8947,542.0636 354.6645,554.8582 354.6645,558.2118 354.6645,558.441 361.5511,568.5847 362.2041,571.0366 358.4856,571.3472 356.2599,573.2969 350.8902,573.2969 340.4374,573.2969 351.2581,509.9224 344.1031,509.9224 L 340.3288,509.9224 C 334.2564,509.9224 328.2926,512.9397 322.2203,512.9397 L 314.6777,512.9397 C 303.9203,512.9397 286.8522,503.4384 286.0063,493.3263 291.1679,496.781 297.7559,503.1323 306.3782,503.1323 L 313.1668,503.1323 C 313.2467,506.6804 314.2419,507.6621 317.695,507.6621 L 319.9599,507.6621 C 321.5251,507.6621 323.7312,505.4545 323.7312,504.6432 323.7312,502.8307 322.5068,502.4251 321.4693,500.8749 324.3299,500.6322 325.9931,497.4595 325.9931,495.5897 L 325.9931,494.8373 C 325.9931,492.5377 325.6508,492.0763 325.5151,490.4281 L 328.258,482.7619 C 328.9064,483.1962 340.3288,494.8192 340.3288,489.555 340.3288,488.6066 331.8181,480.788 329.7538,476.7423 326.6912,470.7152 326.1801,466.4614 321.3819,461.7265 314.729,455.1611 321.59,453.8613 308.4561,451.2646 301.4443,449.8728 294.6964,448.8007 288.2742,447.3064 289.0266,446.6504 292.0425,444.5017 292.0425,443.5351 292.0425,439.2345 288.0766,435.988 283.7474,435.988 281.2835,435.988 281.2609,436.377 279.8465,437.6195 L 279.0925,436.8686 Z M 276.1988,436.7419 C 276.1988,443.2908 277.5017,445.3958 281.0151,448.1945 L 283.7474,456.3614 C 282.2094,457.3898 279.9731,459.139 279.9731,461.6391 279.9731,466.0844 282.238,467.8094 282.238,471.445 282.238,474.7443 280.7271,474.1849 280.7271,477.4842 L 280.7271,478.9921 C 280.7271,480.117 281.9485,486.1879 282.2305,490.3135 282.4642,493.7546 283.657,497.6782 284.9794,500.3894 287.9937,506.5387 298.0816,511.5027 298.0816,513.6982 L 298.0816,522.7487 C 298.0816,525.6198 295.1005,524.7211 292.1721,526.6467 289.9253,528.1274 288.3873,529.5992 286.5642,531.6002 283.8168,534.6175 280.7271,540.5813 280.7271,546.1364 L 280.7271,546.8919 C 280.7271,558.925 289.5634,570.2796 301.099,570.2796 L 308.643,570.2796 C 317.0089,570.2796 327.501,559.0758 327.501,549.9122 L 327.501,544.6255 C 327.501,537.0633 322.0227,529.9686 316.9426,527.2755 314.9959,526.2486 310.151,525.1011 310.151,522.7487 L 310.151,515.9616 322.2203,515.9616 342.5922,513.6982 342.5922,549.9122 C 342.5922,555.8489 343.4788,559.4588 344.0262,564.3143 344.6444,569.782 347.8291,574.7943 345.5582,575.4382 339.8704,577.0607 323.7418,579.3316 316.9426,579.3316 L 296.5722,579.3316 C 281.0709,579.3316 263.6183,574.0826 250.5493,571.0366 250.9564,566.1494 257.3379,559.6956 257.3379,556.7009 257.3379,556.5606 240.9966,539.6615 239.0258,537.2925 232.8102,529.8088 227.8944,524.6623 222.3347,516.2617 216.4388,507.3559 213.5934,502.2713 208.8027,492.0702 206.6434,487.4802 200.9118,466.2789 198.2549,464.3639 L 181.1069,478.2804 159.9916,463.1063 156.9969,464.6564 C 156.9969,484.5563 174.0031,530.0259 182.5032,541.7529 189.3914,551.2452 196.5675,562.7702 204.7057,570.8526 207.2767,573.4025 230.9358,595.5507 230.9358,595.9322 230.9358,597.125 224.9178,605.8588 224.1412,608.7585 229.1776,609.9302 237.4757,613.614 242.4095,615.3858 248.6598,617.628 255.1831,618.9791 262.3426,620.3574 277.4609,623.2601 289.8982,625.3546 307.8861,625.3546 334.2082,625.3546 370.2231,617.2209 388.3467,608.4554 L 380.3156,595.9322 C 381.6878,593.886 402.6809,575.405 406.9121,571.2266 416.3878,561.8564 421.3926,553.0864 428.896,541.9098 438.337,527.8409 455.007,487.0896 455.007,464.6564 455.007,462.9223 454.4792,462.3945 452.7406,462.3945 452.1027,462.3945 433.3428,476.5749 430.8638,478.2382 427.3926,476.4 416.1044,465.4089 414.2632,465.4089 410.3215,465.4089 409.9626,474.0763 408.6704,477.917 407.1353,482.4648 405.5143,487.2856 403.8149,491.1745 401.2122,497.1172 391.7139,512.0772 390.874,515.2076 384.6644,513.5474 383.3993,487.0248 381.1841,479.63 377.6029,467.6737 370.9409,460.196 363.148,452.4001 355.4471,444.6901 346.8671,438.8741 336.8304,433.4502 331.5935,430.6138 332.3308,434.6836 330.8093,428.1559 330.0252,424.7842 329.6558,422.0579 328.8506,418.7978 327.4271,413.0526 326.6475,405.8192 325.2391,399.774 L 321.1632,399.8388 327.501,430.7058 C 319.595,430.7058 319.7594,430.6892 318.743,424.3771 317.9966,419.7478 317.695,415.2542 317.695,410.3384 L 317.695,405.8101 C 317.695,396.6993 324.4867,401.4297 324.4867,393.7408 L 324.4867,392.9869 C 324.4867,390.3812 323.9272,390.063 323.7312,387.7016 336.3841,386.6506 335.0466,367.7972 335.0466,353.751 338.2614,348.9543 347.8699,337.4746 347.8699,330.3633 L 347.8699,317.54 C 347.8699,309.5541 343.6703,295.1354 338.7998,291.8467 L 336.087,293.4285 335.0798,301.7898 334.2971,301.6948 C 334.2971,294.475 326.5751,276.7977 322.2203,276.7977 L 321.4693,276.7977 C 318.0539,276.7977 319.3492,284.2498 318.4535,288.1176 L 316.9426,288.1176 C 316.1268,278.3478 307.9494,270.2458 297.3232,270.0076 298.4752,272.179 301.099,276.8188 301.099,279.815 301.099,284.3041 299.4222,293.6079 298.0816,296.4141 293.0211,295.063 292.0425,284.099 292.0425,277.5532 L 289.0251,277.5532 C 286.5974,277.5532 284.6567,286.3141 283.7474,288.1176 282.1234,291.3204 279.9731,296.1367 279.9731,300.9439 275.8083,298.1558 275.4343,291.8904 272.4306,291.8904 L 271.6721,291.8904 C 267.8887,291.8904 263.3771,313.7069 263.3771,320.5558 L 263.3771,328.8554 C 263.3771,337.2228 269.4464,349.9903 273.9385,352.9985 272.0144,357.0051 273.0005,370.4481 274.0817,374.7291 276.1596,382.914 277.6042,384.8094 284.4999,388.4601 284.4999,397.2784 283.9676,394.4737 287.2775,399.7227 L 282.238,422.4062 C 282.1144,427.898 277.6087,430.9576 284.4154,431.1099 L 290.1741,403.6327 291.29,403.5453 C 291.4921,412.5897 294.0811,416.4846 292.8341,426.9707 292.3154,431.3677 288.0857,429.8689 283.6253,431.3421 279.8962,432.5711 278.3868,434.2298 276.1988,436.7419 Z M 319.9599,392.9869 C 319.9599,394.7255 319.4322,395.2457 317.695,395.2457 L 291.29,395.2457 C 289.5529,395.2457 289.0251,394.7255 289.0251,392.9869 L 289.0251,391.4759 C 289.0251,389.7403 289.5529,389.208 291.29,389.208 L 317.695,389.208 C 319.4322,389.208 319.9599,389.7403 319.9599,391.4759 L 319.9599,392.9869 Z M 330.5198,368.8422 C 330.5198,376.905 326.6249,384.6843 319.203,384.6843 L 289.7821,384.6843 C 281.5896,384.6843 277.8877,376.9155 277.7082,368.8422 L 330.5198,368.8422 Z M 277.7082,358.2823 L 330.5198,358.2823 330.5198,364.3154 277.7082,364.3154 277.7082,358.2823 Z M 337.313,343.9465 L 332.0262,349.9812 332.0262,350.7337 329.0104,353.751 296.5722,353.751 C 292.8793,351.278 288.4054,344.7261 288.2742,338.6628 L 283.7474,338.6628 283.7474,341.6786 C 283.7474,344.7714 288.2998,351.5389 289.7821,353.751 L 280.7271,353.751 C 276.4838,350.9131 267.9023,338.7412 267.9023,331.8727 L 267.9023,315.2781 C 267.9023,310.3488 270.4748,301.4129 273.1815,299.433 L 278.4426,309.6114 277.7082,309.9944 280.7271,309.9944 C 284.6386,309.9944 283.5258,292.8977 289.0251,288.8701 L 295.9359,308.4428 C 301.675,304.1919 305.6257,288.9816 305.6257,278.3071 317.2593,284.4639 311.2457,303.9612 316.1841,303.9612 L 319.203,303.9612 323.3557,285.1908 324.4867,285.1003 C 324.734,288.1146 328.1765,291.6868 329.3497,296.8303 330.3992,301.4295 329.7689,307.2937 329.7689,312.2578 L 334.2459,313.8969 339.2084,302.6041 340.3288,302.4503 C 341.1189,305.8461 344.1031,316.0396 344.1031,318.2939 L 344.1031,323.5747 C 344.1031,331.0207 339.9955,338.8769 337.313,343.9465 Z"
         style="fill-rule:evenodd;fill:#02933e;" />
      <path
         id="path104"
         d="M 386.9371,180.9587 L 387.1048,188.5282 C 387.1048,205.693 391.608,219.4209 399.3166,229.1282 404.1314,235.1901 405.6791,237.7928 412.4347,242.4158 415.0274,244.1904 428.9265,249.6389 432.372,249.6389 L 441.4251,249.6389 C 449.981,249.6389 456.1216,247.2216 463.1441,245.7064 467.1257,244.8474 480.2865,237.5678 481.4109,237.5678 481.8568,237.5678 495.9083,247.8756 497.7075,249.1855 499.9543,250.8209 513.8524,259.4835 513.8524,260.9557 513.8524,261.2498 505.7839,279.4371 504.6866,281.9681 501.372,289.614 499.4911,296.4509 498.7665,306.9803 497.3942,326.9161 499.5351,346.023 499.5178,365.8243 499.4832,405.6184 502.5356,444.0268 502.5356,485.0276 L 502.5356,486.5362 C 502.5356,510.2182 490.1646,544.1682 480.9657,559.2725 469.6568,577.8415 452.015,594.8474 433.7174,606.3302 412.2987,619.7721 394.398,626.4822 368.4917,635.4106 346.2533,643.0747 317.9786,651.0361 306.3787,668.3588 302.0108,665.4334 299.0358,660.416 294.1621,657.1869 289.0192,653.7795 284.8625,651.0573 278.7762,648.4309 273.5426,646.1723 267.246,644.0031 262.2113,641.6077 256.4612,638.8726 250.2756,637.8538 244.2077,635.469 232.2805,630.7823 221.1354,627.4724 209.3663,622.7801 198.3932,618.4054 186.8882,612.3882 177.6689,606.1929 161.4515,595.2948 139.2361,575.9933 130.8391,557.9619 128.711,553.392 125.3885,547.8842 122.782,542.6314 119.8318,536.6872 118.7266,531.4393 116.4941,524.7767 114.4727,518.7447 112.8578,511.6384 111.9012,505.2265 111.2988,501.1847 108.7128,486.9772 108.7128,484.2727 L 108.8794,478.9972 113.9938,309.2404 C 114.5627,292.3803 98.1505,264.2795 98.1505,260.9557 98.1505,259.9358 112.231,250.6023 114.3082,249.199 116.1579,247.9488 130.1189,237.5678 130.5919,237.5678 132.8995,237.5678 153.9465,249.6389 166.8054,249.6389 L 177.3678,249.6389 C 190.7231,249.6389 205.0128,239.2881 211.5344,231.7487 218.2426,223.993 224.8981,206.7617 224.8981,192.3005 L 224.8981,174.1938 C 226.4242,173.7864 261.3372,149.9548 265.012,147.1617 268.0873,144.8247 305.6148,119.8732 305.6242,119.8732 307.6114,119.8732 341.2021,143.3649 346.7746,146.6235 353.6791,150.6607 383.3879,173.1521 387.9495,174.2075 L 386.9371,180.9587 Z M 401.8887,168.8886 C 400.156,165.8698 306.3731,103.2756 305.6242,103.2756 305.1235,103.2756 218.5298,162.3188 209.8088,168.1585 L 211.6195,186.2352 211.318,195.3185 C 211.318,216.3869 195.3144,236.0586 172.8408,236.0586 L 166.8054,236.0586 C 152.8936,236.0586 133.0013,221.724 130.5919,221.724 129.3492,221.724 81.5286,254.9653 80.0436,257.1834 89.6371,271.5101 100.4135,293.7558 100.4135,317.5396 L 100.4135,326.5927 95.8391,470.6911 95.887,482.0096 C 95.887,543.9058 131.3819,593.2176 169.813,617.0666 191.4874,630.5165 214.8672,640.5063 242.1048,648.8887 256.485,653.3139 267.0749,659.0135 279.4015,663.6489 291.348,668.1404 298.4139,683.3955 306.3787,688.7287 310.5047,682.5674 326.1656,666.4948 333.2251,663.5183 344.6936,658.6829 357.3658,651.8036 370.3508,648.5872 394.6288,642.5726 424.0533,629.2282 442.6332,616.7552 464.102,602.3419 480.9883,586.8467 493.7365,563.7447 505.1265,543.1034 516.1159,513.5593 516.1159,482.0096 L 516.1159,478.9918 511.6625,332.6261 511.5893,316.0304 C 511.5893,294.3382 523.1889,270.2807 531.9593,257.1834 530.495,254.9974 482.5044,221.724 481.4109,221.724 479.9167,221.724 459.295,236.0586 439.9164,236.0586 L 439.1621,236.0586 428.6085,235.2138 C 425.2753,233.0784 420.808,231.6631 416.8163,228.9809 412.9399,226.3763 411.4257,223.1393 408.7839,219.6607 404.7632,214.367 400.6849,201.461 400.6849,192.3005 L 400.4126,187.7528 401.8887,168.8886 Z"
         style="fill-rule:evenodd;fill:#02933e;" />
      <path
         id="path106"
         d="M 284.2134,480.2935 C 294.621,487.6611 306.4113,490.0828 318.265,490.8413"
         style="fill-rule:evenodd;fill:#20221d;" />
      <path
         id="path108"
         d="M 158.4323,311.6983 C 159.4078,311.3262 160.3911,310.9386 161.3744,310.5588 161.5384,311.6137 161.7879,312.2741 162.103,312.5486 162.6322,313.0088 163.505,313.039 164.7248,312.6393 165.7444,312.3043 166.4531,311.8459 166.8554,311.2788 167.2612,310.709 167.4304,310.1409 167.3579,309.5556 167.2948,309.0402 167.0635,308.6751 166.6569,308.4454 166.3642,308.2814 165.5985,308.1114 164.3614,307.9283 163.1329,307.7479 162.2161,307.5381 161.6386,307.3361 161.0515,307.1289 160.5733,306.7897 160.1908,306.2803 159.8075,305.771 159.5753,305.1088 159.4804,304.2974 159.3129,302.8617 159.6375,301.5245 160.4455,300.2546 161.2466,298.9959 162.5252,298.0653 164.2699,297.4515 166.0387,296.8291 167.4468,296.7954 168.5328,297.3988 169.6033,297.9945 170.2801,299.0693 170.5529,300.612 169.5696,301.022 168.5863,301.4174 167.6125,301.8197 167.4485,301.022 167.1092,300.4782 166.6102,300.2019 166.1078,299.9257 165.4319,299.9291 164.5625,300.2321 163.7131,300.5274 163.1148,300.9271 162.7945,301.395 162.4708,301.8681 162.3335,302.3524 162.394,302.8695 162.4509,303.3607 162.6693,303.7034 163.0406,303.9097 163.4144,304.1195 164.2051,304.3258 165.4258,304.495 167.2534,304.7497 168.4378,305.0622 168.9679,305.4222 169.7673,305.9635 170.2576,306.8492 170.3992,308.0811 170.5745,309.5997 170.2032,311.0862 169.27,312.5262 168.3472,313.9498 166.9297,314.9762 165.0442,315.5952 163.7528,316.0173 162.5942,316.1425 161.5842,315.9526 160.5733,315.7618 159.8179,315.2904 159.325,314.5394 158.8363,313.7944 158.5333,312.8534 158.4323,311.6983 Z M 172.6835,312.7541 C 172.857,309.6834 173.0547,306.6075 173.2308,303.5454 173.4078,300.4687 173.6037,297.3911 173.7859,294.3057 177.4833,292.9305 181.1894,291.5328 184.8765,290.1127 184.8135,291.1607 184.7678,292.2087 184.7142,293.2507 182.0355,294.2763 179.3593,295.2786 176.69,296.2584 176.5993,297.6639 176.5182,299.0693 176.4448,300.4747 179.0217,299.5337 181.6271,298.5841 184.204,297.619 184.1393,298.667 184.0944,299.7167 184.0305,300.7492 181.445,301.7066 178.8586,302.6407 176.2549,303.5679 176.1263,305.2625 175.9985,306.9485 175.8716,308.6354 178.7938,307.6176 181.7083,306.5773 184.6219,305.5275 184.5588,306.5773 184.495,307.6176 184.4406,308.6656 180.5247,310.0486 176.5993,311.416 172.6835,312.7541 Z M 189.8681,306.7128 C 188.8287,307.0858 187.8005,307.4578 186.7723,307.8308 186.9441,304.685 187.1142,301.5469 187.2817,298.4166 187.4491,295.2725 187.6183,292.1328 187.8005,288.9801 190.0036,288.1133 192.2093,287.2336 194.4202,286.3522 195.5588,285.8981 196.4601,285.6763 197.1257,285.6978 197.7982,285.7203 198.374,286.0319 198.8549,286.625 199.3288,287.2086 199.6344,288.0451 199.7656,289.1173 199.953,290.6419 199.7233,292.0611 199.0828,293.3483 198.4405,294.6423 197.3623,295.7042 195.8411,296.539 196.2961,296.8066 196.7321,297.227 197.1525,297.7787 198.0244,298.9199 199.0198,300.612 200.1757,302.8617 199.0733,303.2795 197.9622,303.6896 196.871,304.1074 196.4782,303.1949 195.7591,301.8189 194.731,299.974 194.1759,298.9795 193.638,298.3778 193.1011,298.1663 192.792,298.0446 192.2637,298.124 191.5428,298.402 191.1181,298.5643 190.6959,298.7119 190.2764,298.8794 190.1314,301.4943 190.0036,304.0997 189.8681,306.7128 Z M 190.4318,296.0314 C 190.9774,295.8259 191.5187,295.6179 192.0617,295.4081 193.7209,294.7675 194.7931,294.2202 195.3042,293.7739 195.8196,293.3241 196.1968,292.7941 196.442,292.1708 196.688,291.5483 196.7683,290.963 196.7062,290.4002 196.6336,289.7492 196.3505,289.3513 195.8679,289.2002 195.5787,289.1095 194.9856,289.2546 194.0844,289.6103 192.9474,290.0583 191.8165,290.5003 190.6959,290.9328 190.6053,292.6352 190.5147,294.329 190.4318,296.0314 Z M 209.2911,299.3067 C 208.1982,299.7392 207.1044,300.1639 206.0038,300.5973 205.1931,297.7485 204.3773,294.9048 203.5719,292.0732 202.7664,289.2459 201.9506,286.4273 201.1504,283.6087 202.169,283.1822 203.1903,282.7722 204.2003,282.3396 205.3753,286.6319 206.5683,290.9483 207.7519,295.2639 208.4892,292.5584 209.2549,289.8442 209.9921,287.1257 210.7285,284.4064 211.4856,281.6792 212.2315,278.9288 213.2433,278.5032 214.2447,278.0612 215.2547,277.6209 214.2628,281.2614 213.283,284.8967 212.2876,288.5173 211.2983,292.1207 210.2926,295.7189 209.2911,299.3067 Z M 215.5931,296.7686 C 215.7373,293.5011 215.8798,290.218 216.0196,286.9444 216.1595,283.6708 216.3028,280.3869 216.4573,277.096 217.4691,276.6635 218.4791,276.2155 219.4892,275.7605 219.3441,279.0566 219.2164,282.3561 219.0808,285.6521 218.9453,288.9352 218.7968,292.2312 218.6613,295.5143 217.6314,295.939 216.6213,296.3655 215.5931,296.7686 Z M 231.4094,283.0242 C 232.4575,282.7644 233.4951,282.4994 234.5518,282.2412 234.2142,284.6265 233.5158,286.6371 232.4575,288.273 231.3956,289.9107 230.0601,291.0761 228.4509,291.7607 226.638,292.5325 225.1333,292.4453 223.942,291.5103 222.7507,290.5754 221.9953,288.8039 221.6759,286.2296 221.4134,284.1172 221.5248,282.0513 221.9936,280.0062 222.4615,277.9645 223.2375,276.1956 224.3253,274.7332 225.4225,273.257 226.6864,272.1986 228.1134,271.5503 229.7087,270.8251 231.0641,270.769 232.1734,271.3906 233.3017,272.0225 234.0692,273.2449 234.4689,275.038 233.5219,275.6077 232.5662,276.1706 231.6097,276.724 231.3101,275.7062 230.9053,275.0578 230.3812,274.7798 229.8607,274.5045 229.2141,274.5252 228.4509,274.8783 227.6213,275.2616 226.8634,275.9341 226.2193,276.8984 225.571,277.8695 225.1126,279.1334 224.8441,280.6985 224.5774,282.2473 224.5213,283.7088 224.6887,285.0599 224.8743,286.549 225.2965,287.5789 225.9733,288.1522 226.6432,288.7176 227.4072,288.8203 228.2507,288.4552 229.0362,288.1142 229.7148,287.465 230.2984,286.5326 230.8785,285.6055 231.2558,284.4297 231.4094,283.0242 Z M 236.4545,287.932 C 236.5727,284.5574 236.6919,281.1828 236.8093,277.8031 236.9267,274.4224 237.0553,271.0496 237.1831,267.6595 240.8158,265.9363 244.4494,264.1882 248.0734,262.4107 248.0372,263.564 248.0009,264.7191 247.9647,265.8673 245.342,267.1363 242.7202,268.3898 240.0967,269.6277 240.0423,271.1704 239.9784,272.7131 239.9335,274.255 242.4638,273.0774 245.0045,271.8852 247.5451,270.6697 247.5002,271.8153 247.4735,272.9704 247.4372,274.1108 244.8957,275.303 242.355,276.4961 239.8144,277.6589 239.7151,279.521 239.6227,281.3667 239.5235,283.2211 242.3913,281.9365 245.2505,280.6217 248.1201,279.2931 248.0734,280.4396 248.0277,281.5869 248.0009,282.7419 244.1584,284.497 240.3151,286.2296 236.4545,287.932 Z"
         style="fill-rule:evenodd;fill:#02933e;" />
      <path
         id="path110"
         d="M 257.0257,231.3479 C 259.3316,230.9465 261.646,230.5468 263.9605,230.1609 265.3375,229.9321 266.3656,229.8319 267.0355,229.8475 267.7124,229.8639 268.3141,230.0279 268.851,230.3482 269.3802,230.6633 269.8231,231.1295 270.1779,231.7441 270.531,232.3553 270.7071,233.0805 270.7071,233.9084 270.7071,234.8088 270.4913,235.6721 270.0588,236.487 269.6245,237.3037 269.0211,237.9538 268.2718,238.4406 269.3302,238.6237 270.1494,239.0847 270.7071,239.8176 271.2743,240.5652 271.5652,241.4898 271.5652,242.6017 271.5652,243.4745 271.3856,244.3533 271.0162,245.2295 270.6467,246.1058 270.146,246.8344 269.5097,247.4162 268.8795,247.9921 268.0939,248.4142 267.165,248.6568 266.578,248.8104 265.1683,249.0608 262.9341,249.394 260.958,249.6901 258.9923,249.9716 257.0257,250.2599 257.0257,247.108 257.0257,243.957 257.0257,240.8026 257.0257,237.6507 257.0257,234.4989 257.0257,231.3479 Z M 260.5376,233.9041 C 260.5376,235.3682 260.5376,236.8332 260.5376,238.2948 261.2964,238.1713 262.0544,238.0522 262.8236,237.9279 264.1902,237.7094 265.0388,237.5592 265.378,237.4625 265.9659,237.2951 266.4442,236.9877 266.7852,236.5604 267.1314,236.1262 267.304,235.6004 267.304,234.9815 267.304,234.3892 267.1607,233.9231 266.8646,233.6054 266.5633,233.2808 266.1153,233.1297 265.5377,233.1478 265.1881,233.1591 264.1902,233.3006 262.5447,233.57 261.8748,233.6805 261.2075,233.791 260.5376,233.9041 Z M 260.5376,241.4596 C 260.5376,242.3056 260.5376,243.1516 260.5376,243.9994 260.5376,244.8454 260.5376,245.6914 260.5376,246.54 261.6158,246.3786 262.6941,246.2154 263.7723,246.0557 265.037,245.8692 265.8347,245.7043 266.1774,245.5826 266.6911,245.397 267.1288,245.088 267.4542,244.6339 267.7754,244.1875 267.9429,243.6135 267.9429,242.9349 267.9429,242.3617 267.816,241.8912 267.563,241.5278 267.3083,241.1643 266.9432,240.9243 266.4666,240.8155 265.9961,240.7085 264.9576,240.7689 263.3623,241.0176 262.4152,241.1643 261.4768,241.3102 260.5376,241.4596 Z M 274.5194,247.7866 C 274.5194,244.5734 274.5194,241.356 274.5194,238.1411 274.5194,234.9262 274.5194,231.7096 274.5194,228.4947 278.7996,227.8991 283.0918,227.3552 287.3832,226.889 287.3832,227.9897 287.3832,229.0878 287.3832,230.1868 284.259,230.5157 281.1356,230.8791 278.0217,231.2771 278.0217,232.7093 278.0217,234.1389 278.0217,235.5685 280.9258,235.2033 283.8308,234.8701 286.7349,234.5628 286.7349,235.6557 286.7349,236.7495 286.7349,237.8407 283.8308,238.1411 280.9258,238.4665 278.0217,238.8222 278.0217,239.7019 278.0217,240.5833 278.0217,241.4596 278.0217,242.3358 278.0217,243.2146 278.0217,244.0909 281.2461,243.7145 284.4791,243.3631 287.7121,243.0549 287.7121,244.1487 287.7121,245.2451 287.7121,246.338 283.312,246.7567 278.9101,247.247 274.5194,247.7866 Z M 290.7155,246.0876 C 290.7155,242.8382 290.7155,239.5854 290.7155,236.3325 290.7155,233.0831 290.7155,229.8311 290.7155,226.5799 294.678,226.283 298.6396,226.0654 302.6116,225.9463 302.6116,227.053 302.6116,228.1554 302.6116,229.2596 299.8068,229.3347 297.0123,229.4564 294.2187,229.6179 294.2187,231.1588 294.2187,232.7015 294.2187,234.2399 296.6342,234.1009 299.048,233.9895 301.4643,233.9144 301.4643,235.0194 301.4643,236.1262 301.4643,237.2269 299.048,237.2994 296.6342,237.4082 294.2187,237.548 294.2187,238.931 294.2187,240.3157 294.2187,241.6996 294.2187,243.0808 294.2187,244.4647 294.2187,245.8476 293.0516,245.9184 291.8844,246.0004 290.7155,246.0876 Z M 304.7871,235.8352 C 304.7871,233.8376 305.0409,232.1576 305.5744,230.8092 305.9663,229.819 306.5111,228.9264 307.1922,228.1434 307.8759,227.3595 308.6218,226.794 309.4376,226.4289 310.5159,225.9463 311.7642,225.7201 313.1791,225.7926 315.7344,225.9221 317.7821,226.9503 319.3162,228.8616 320.0759,229.8095 320.6552,230.9257 321.0333,232.2008 321.4123,233.4785 321.6125,234.9141 321.6125,236.5052 321.6125,238.0832 321.4123,239.4757 321.0333,240.674 320.6552,241.8731 320.0854,242.8987 319.3266,243.7326 317.8115,245.3936 315.7741,246.1446 313.2197,246.0272 310.6453,245.9098 308.5873,244.9826 307.0627,243.1861 306.3039,242.2918 305.7358,241.2273 305.356,239.9997 304.9787,238.7773 304.7871,237.3918 304.7871,235.8352 Z M 308.3896,235.7317 C 308.3896,237.946 308.8463,239.6423 309.7562,240.813 310.6617,241.9801 311.8125,242.5922 313.2093,242.6543 314.6052,242.7174 315.7577,242.2227 316.6512,241.1358 317.0932,240.5989 317.4299,239.9065 317.6501,239.07 317.8667,238.2386 317.9893,237.2545 317.9893,236.1201 317.9893,233.8808 317.5491,232.1758 316.6814,231.0172 315.8147,229.8622 314.6562,229.238 313.2093,229.1689 311.7642,229.1007 310.6005,229.6239 309.7165,230.716 308.8359,231.8046 308.3896,233.4767 308.3896,235.7317 Z M 324.3569,246.4994 C 324.3569,243.2448 324.3569,239.9868 324.3569,236.7296 324.3569,233.4742 324.3569,230.217 324.3569,226.9615 326.8121,227.224 329.2682,227.5037 331.7303,227.8222 333.5872,228.0622 334.9365,228.436 335.773,228.9031 336.6104,229.3692 337.2933,230.0918 337.7983,231.0595 338.3007,232.0221 338.5468,233.077 338.5468,234.2252 338.5468,235.6773 338.1652,236.8246 337.3986,237.6646 336.6389,238.4994 335.4933,238.9448 333.967,238.9837 334.725,239.5828 335.3509,240.213 335.843,240.8691 336.3376,241.5295 336.998,242.6725 337.838,244.2903 338.5416,245.6474 339.2555,247.0045 339.9643,248.3615 338.5675,248.1682 337.1698,247.9877 335.773,247.8004 334.9244,246.2819 334.0767,244.7608 333.2384,243.2422 332.3432,241.6184 331.7199,240.5911 331.391,240.1569 331.0629,239.7226 330.7142,239.4058 330.3343,239.2098 329.9666,239.0216 329.3752,238.8809 328.5672,238.7911 328.3289,238.7652 328.0984,238.7393 327.8688,238.7126 327.8688,240.0714 327.8688,241.4293 327.8688,242.7856 327.8688,244.1435 327.8688,245.5023 327.8688,246.8577 326.6913,246.7317 325.5241,246.6151 324.3569,246.4994 Z M 327.8688,235.5953 C 328.7269,235.6963 329.5867,235.7886 330.4535,235.8957 332.13,236.102 333.1875,236.1624 333.6062,236.0597 334.024,235.9587 334.3452,235.7282 334.5852,235.3708 334.8234,235.0177 334.9443,234.5446 334.9443,233.9611 334.9443,233.3084 334.7846,232.7602 334.4747,232.313 334.1673,231.8676 333.7288,231.5456 333.1478,231.3686 332.8724,231.284 332.0203,231.1519 330.5933,230.9724 329.6877,230.8575 328.777,230.7548 327.8688,230.6469 327.8688,232.2975 327.8688,233.949 327.8688,235.5953 Z M 341.8506,248.6179 C 341.8506,245.4013 341.8506,242.1839 341.8506,238.9638 341.8506,235.7463 341.8506,232.5297 341.8506,229.3123 346.1316,230.0296 350.423,230.7971 354.7127,231.5879 354.7127,232.6532 354.7127,233.7193 354.7127,234.7846 351.5902,234.2295 348.4668,233.6788 345.3529,233.1478 345.3529,234.5705 345.3529,235.9889 345.3529,237.4082 348.257,237.883 351.1603,238.369 354.0644,238.8602 354.0644,239.922 354.0644,240.9822 354.0644,242.0431 351.1603,241.5701 348.257,241.1039 345.3529,240.6438 345.3529,241.5157 345.3529,242.3885 345.3529,243.2604 345.3529,244.1288 345.3529,245.0051 345.3529,245.8735 348.5859,246.3587 351.819,246.8473 355.0537,247.3403 355.0537,248.4004 355.0537,249.4596 355.0537,250.5198 350.6518,249.8818 346.2508,249.2421 341.8506,248.6179 Z"
         style="fill-rule:evenodd;fill:#02933e;" />
      <path
         id="path112"
         d="M 376.2586,282.7488 C 377.4189,283.108 378.5878,283.4671 379.7618,283.8271 379.4752,285.1643 379.5374,286.2581 379.9345,287.105 380.329,287.9467 381.0524,288.5976 382.1108,289.0465 383.2184,289.5153 384.1534,289.612 384.9243,289.3349 385.6848,289.0603 386.2063,288.5803 386.4722,287.8923 386.6439,287.4477 386.6621,287.0221 386.5429,286.6069 386.4238,286.1951 386.1191,285.741 385.6166,285.2576 385.2756,284.9312 384.4581,284.2587 383.1658,283.2426 381.5031,281.9348 380.4507,280.7408 379.9906,279.6833 379.3336,278.1769 379.2982,276.6773 379.8732,275.1752 380.2427,274.2075 380.8271,273.4089 381.6447,272.7865 382.4613,272.1667 383.417,271.8404 384.5159,271.8214 385.6192,271.7998 386.8296,272.0864 388.1417,272.6734 390.2965,273.6377 391.7037,274.8748 392.3917,276.3899 393.078,277.9032 393.1169,279.5236 392.5065,281.2623 391.3264,280.8116 390.1549,280.3619 388.9835,279.9086 389.2122,278.8796 389.1613,278.0439 388.8401,277.4103 388.5164,276.7723 387.8603,276.2362 386.8943,275.808 385.8903,275.3643 385.0123,275.24 384.2751,275.4446 383.7994,275.5767 383.4601,275.8814 383.2711,276.3692 383.0976,276.8181 383.1286,277.2739 383.3479,277.7435 383.6242,278.3349 384.5254,279.2275 386.0327,280.3921 387.5582,281.5705 388.6269,282.565 389.2493,283.3739 389.8726,284.1871 390.2585,285.0927 390.4036,286.0949 390.5486,287.0946 390.3915,288.1824 389.9357,289.3564 389.5213,290.4235 388.8548,291.3127 387.9475,292.0111 387.0376,292.7095 385.9982,293.0763 384.8241,293.1143 383.6544,293.1497 382.3189,292.8553 380.8409,292.2346 378.6715,291.3239 377.2151,290.0756 376.4787,288.4811 375.7415,286.8823 375.6698,284.9666 376.2586,282.7488 Z M 390.7264,296.0081 C 391.935,292.9149 393.1462,289.8243 394.3531,286.7303 395.56,283.6372 396.772,280.5457 397.9815,277.4517 402.2125,279.3458 406.4452,281.2398 410.6761,283.1313 410.2635,284.1586 409.8569,285.1868 409.4494,286.2158 406.3718,284.8518 403.2933,283.4904 400.2148,282.1273 399.6753,283.4904 399.1426,284.8561 398.6031,286.2193 401.4657,287.4676 404.3275,288.7193 407.2023,289.9763 406.7905,290.9958 406.3856,292.0197 405.9807,293.0435 403.1086,291.8021 400.2493,290.5642 397.3824,289.3254 397.0535,290.1653 396.722,291.0053 396.3922,291.8401 396.0615,292.6741 395.7369,293.5158 395.4098,294.3549 398.5927,295.7042 401.7825,297.0596 404.9698,298.4141 404.5649,299.4396 404.1549,300.4592 403.75,301.4822 399.4111,299.6598 395.0705,297.8382 390.7264,296.0081 Z M 406.7741,302.7555 C 407.9706,299.7599 409.1731,296.7652 410.3705,293.7696 411.5688,290.7748 412.767,287.7732 413.9652,284.7767 415.1177,285.2938 416.2694,285.8109 417.4227,286.3254 416.4282,288.8005 415.432,291.279 414.4383,293.7497 413.4421,296.2239 412.4502,298.6989 411.4557,301.174 414.3192,302.386 417.1801,303.6033 420.048,304.8214 419.6396,305.8202 419.2348,306.8251 418.8273,307.8247 414.8035,306.1318 410.7909,304.445 406.7741,302.7555 Z M 421.3179,308.871 C 422.5265,305.9169 423.7342,302.9601 424.9437,300.0051 426.1523,297.0509 427.3617,294.0933 428.5703,291.1383 432.4853,292.889 436.3986,294.6398 440.3136,296.3888 439.9044,297.3738 439.4952,298.3545 439.086,299.3378 436.3192,298.1136 433.5601,296.8921 430.8002,295.6697 430.2278,297.0613 429.6564,298.4538 429.084,299.8437 431.4641,300.8839 433.8502,301.9224 436.232,302.9618 435.8211,303.9486 435.4119,304.931 435.0079,305.9177 432.6243,304.8878 430.2399,303.8597 427.8564,302.828 427.3419,304.0789 426.8299,305.3298 426.3172,306.5764 425.8035,307.8265 425.2907,309.0774 424.7788,310.3248 423.6202,309.8379 422.4704,309.3528 421.3179,308.871 Z"
         style="fill-rule:evenodd;fill:#02933e;" />
      <path
         id="path114"
         d="M 196.2875,496.4426 L 198.8419,502.9198 C 199.4177,504.3779 199.7458,505.533 199.8243,506.3902 199.9279,507.5393 199.7372,508.6348 199.2485,509.6724 198.7668,510.7127 198.0399,511.6459 197.0713,512.4729 196.0975,513.2957 194.7914,514.0329 193.1451,514.6821 191.7025,515.251 190.3852,515.5626 189.1964,515.6162 187.7496,515.6818 186.4684,515.4642 185.3582,514.9583 184.5157,514.582 183.7223,513.9362 182.9747,513.0229 182.4179,512.34 181.8827,511.342 181.3655,510.0307 L 178.736,503.3653 196.2875,496.4426 Z M 194.7146,501.157 L 183.0921,505.741 184.135,508.3853 C 184.5252,509.3746 184.8601,510.0687 185.1493,510.4649 185.518,510.9803 185.9479,511.3636 186.4399,511.6079 186.9337,511.8522 187.6226,511.9351 188.5023,511.8669 189.3803,511.7944 190.5034,511.4931 191.8605,510.9579 193.2167,510.4226 194.2069,509.8908 194.8397,509.3668 195.4725,508.8394 195.9085,508.2791 196.1433,507.6912 196.3816,507.0973 196.4394,506.4412 196.3211,505.7229 196.2408,505.1833 195.9119,504.194 195.3413,502.7472 L 194.7146,501.157 Z"
         style="fill-rule:evenodd;fill:#02933e;" />
      <path
         id="path116"
         d="M 186.9562,520.8037 L 203.4217,511.5915 210.2503,523.7975 207.4636,525.3566 202.4936,516.4743 198.8445,518.5159 203.4691,526.7811 200.6971,528.3324 196.0725,520.0664 191.5912,522.5743 196.7364,531.7717 193.9609,533.3239 186.9562,520.8037 Z"
         style="fill-rule:evenodd;fill:#02933e;" />
      <path
         id="path118"
         d="M 195.6806,536.3109 L 211.5866,526.4513 213.5929,529.6877 200.3907,537.8717 205.3805,545.9219 202.6766,547.5975 195.6806,536.3109 Z"
         style="fill-rule:evenodd;fill:#02933e;" />
      <path
         id="path120"
         d="M 204.8651,549.7367 L 219.5876,537.9382 221.972,540.9131 216.1793,545.5558 220.8471,551.3796 226.6398,546.7368 229.0216,549.7091 214.2991,561.5085 211.9173,558.5362 218.3548,553.3772 213.687,547.5535 207.2495,552.7125 204.8651,549.7367 Z"
         style="fill-rule:evenodd;fill:#02933e;" />
      <path
         id="path122"
         d="M 217.3655,564.9073 L 230.9821,551.8475 233.6186,554.5962 220.0019,567.6568 217.3655,564.9073 Z"
         style="fill-rule:evenodd;fill:#02933e;" />
      <path
         id="path124"
         d="M 268.3641,606.6834 L 269.7532,591.0467 275.2644,591.0467 C 277.3536,591.0467 278.7098,591.1261 279.3288,591.2833 280.2835,591.5164 281.0588,592.0257 281.6467,592.8121 282.2346,593.5986 282.4728,594.6147 282.3623,595.8561 282.2777,596.8169 282.0162,597.625 281.5776,598.2768 281.1382,598.932 280.6142,599.4456 279.9935,599.8203 279.378,600.1915 278.7616,600.4393 278.1486,600.5593 277.3156,600.7086 276.1199,600.7855 274.5625,600.7855 L 272.3232,600.7855 271.7992,606.6834 268.3641,606.6834 Z M 272.9534,593.6936 L 272.5589,598.1274 274.4374,598.1274 C 275.7936,598.1274 276.7078,598.0471 277.1783,597.884 277.6488,597.7199 278.0269,597.4653 278.3196,597.1156 278.6088,596.766 278.7754,596.362 278.8168,595.8993 278.8669,595.3312 278.7262,594.8616 278.3947,594.4904 278.0666,594.1226 277.6246,593.8895 277.0773,593.7989 276.6707,593.7264 275.8497,593.6936 274.6135,593.6936 L 272.9534,593.6936 Z"
         style="fill-rule:evenodd;fill:#02933e;" />
      <path
         id="path126"
         d="M 284.7001,593.0245 L 287.8572,593.0245 287.4661,601.7195 C 287.4048,603.0982 287.4048,603.9952 287.4626,604.4026 287.568,605.0605 287.8675,605.5879 288.3561,605.9842 288.8482,606.3839 289.5345,606.5824 290.4151,606.5824 291.3112,606.5824 291.9966,606.3951 292.4688,606.0178 292.9402,605.644 293.2346,605.1805 293.3503,604.6349 293.4694,604.0849 293.554,603.1768 293.611,601.906 L 294.0098,593.0245 297.166,593.0245 296.7879,601.4571 C 296.7007,603.3865 296.5556,604.7471 296.3485,605.543 296.1421,606.339 295.7994,607.008 295.316,607.5579 294.8317,608.1035 294.198,608.5412 293.4176,608.8658 292.6355,609.1913 291.6237,609.3519 290.3857,609.3519 288.8931,609.3519 287.7691,609.1766 287.0129,608.8209 286.2575,608.4661 285.6696,608.006 285.2474,607.4423 284.8253,606.8777 284.5568,606.2829 284.4429,605.663 284.2762,604.7428 284.2348,603.3865 284.316,601.5883 L 284.7001,593.0245 Z"
         style="fill-rule:evenodd;fill:#02933e;" />
      <path
         id="path128"
         d="M 299.5651,594.1805 L 305.8153,594.1805 C 307.0532,594.1805 307.9787,594.2323 308.5864,594.3402 309.1942,594.4438 309.7363,594.6622 310.2172,594.9963 310.698,595.3295 311.0951,595.7706 311.4154,596.3266 311.7348,596.8791 311.8954,597.5015 311.8954,598.187 311.8954,598.932 311.6986,599.6174 311.3058,600.2407 310.9095,600.8632 310.3743,601.3302 309.7,601.6418 310.6505,601.9233 311.386,602.405 311.8954,603.0835 312.409,603.7655 312.6637,604.5658 312.6637,605.4852 312.6637,606.2078 312.4997,606.9122 312.1682,607.5977 311.8375,608.2797 311.386,608.8278 310.8146,609.2362 310.2431,609.6436 309.536,609.8957 308.6952,609.9916 308.1712,610.0477 306.9004,610.0848 304.8872,610.0995 L 299.5651,610.0995 299.5651,594.1805 Z M 302.7247,596.8307 L 302.7247,600.5109 304.7923,600.5109 C 306.0233,600.5109 306.7882,600.4928 307.086,600.4557 307.6247,600.3927 308.0512,600.2036 308.3602,599.8885 308.6693,599.5734 308.8229,599.1582 308.8229,598.6428 308.8229,598.1498 308.6917,597.7501 308.4267,597.442 308.1565,597.1346 307.7594,596.949 307.2354,596.886 306.9229,596.8489 306.0233,596.8307 304.5376,596.8307 L 302.7247,596.8307 Z M 302.7247,603.1612 L 302.7247,607.4164 305.6452,607.4164 C 306.7839,607.4164 307.5056,607.3862 307.8103,607.3197 308.2808,607.2342 308.6632,607.0193 308.9576,606.686 309.252,606.3485 309.4014,605.8961 309.4014,605.3333 309.4014,604.855 309.2857,604.451 309.0595,604.1178 308.8299,603.7837 308.5027,603.5393 308.0728,603.3874 307.6437,603.2355 306.707,603.1612 305.2731,603.1612 L 302.7247,603.1612 Z"
         style="fill-rule:evenodd;fill:#02933e;" />
      <path
         id="path130"
         d="M 315.6256,610.2859 L 315.6256,594.7761 318.7818,594.7761 318.7818,607.6503 326.6317,607.6503 326.6317,610.2859 315.6256,610.2859 Z"
         style="fill-rule:evenodd;fill:#02933e;" />
      <path
         id="path132"
         d="M 328.8909,609.3985 L 328.8909,593.7618 332.048,593.7618 332.048,609.3985 328.8909,609.3985 Z"
         style="fill-rule:evenodd;fill:#02933e;" />
      <path
         id="path134"
         d="M 343.9682,602.2056 L 347.026,603.1906 C 346.5564,604.9275 345.7777,606.2155 344.6847,607.0598 343.597,607.9007 342.2088,608.3228 340.5315,608.3228 338.4561,608.3228 336.7486,607.6011 335.413,606.1603 334.0758,604.716 333.4059,602.7425 333.4059,600.2425 333.4059,597.5948 334.0801,595.5401 335.4234,594.0734 336.7667,592.611 338.533,591.8772 340.724,591.8772 342.6353,591.8772 344.1901,592.4513 345.384,593.6029 346.0971,594.2806 346.6297,595.2587 346.9863,596.532 L 343.8586,597.2917 C 343.6764,596.4656 343.2905,595.8138 342.7009,595.3364 342.1147,594.859 341.4017,594.6216 340.5634,594.6216 339.4057,594.6216 338.463,595.0437 337.7422,595.8915 337.0222,596.7358 336.6614,598.1058 336.6614,600.0025 336.6614,602.0131 337.0144,603.4461 337.7284,604.2973 338.4371,605.1528 339.3626,605.5793 340.4978,605.5793 341.3395,605.5793 342.0595,605.3082 342.6638,604.7644 343.2681,604.2239 343.7023,603.3684 343.9682,602.2056 Z"
         style="fill-rule:evenodd;fill:#02933e;" />
      <path
         id="path136"
         d="M 383.4498,570.3391 L 385.1772,567.6983 C 386.1165,568.2154 386.9608,568.4018 387.7092,568.2603 388.4534,568.1187 389.1354,567.6689 389.7509,566.9032 390.4018,566.0943 390.7221,565.3441 390.7066,564.6586 390.6954,563.9715 390.4605,563.4431 390.0021,563.0754 389.7069,562.838 389.3875,562.724 389.0422,562.7326 388.6951,562.7361 388.273,562.8932 387.7749,563.2031 387.4347,563.412 386.7147,563.9404 385.6115,564.7769 384.1948,565.8577 383.0225,566.4715 382.0996,566.6226 380.7986,566.8376 379.6565,566.5484 378.6706,565.7559 378.0352,565.2457 377.5889,564.5904 377.3248,563.785 377.0623,562.983 377.0597,562.1249 377.3127,561.2167 377.5708,560.3077 378.0819,559.3753 378.8511,558.4188 380.1106,556.8537 381.3969,555.9541 382.7169,555.7133 384.0385,555.4776 385.2851,555.7961 386.4635,556.6775 L 384.5522,559.2804 C 383.8244,558.8712 383.177,558.733 382.6141,558.8625 382.0487,558.9903 381.4832,559.409 380.9134,560.1169 380.3264,560.8472 380.013,561.5396 379.9828,562.1939 379.9604,562.6152 380.1106,562.9554 380.4326,563.2152 380.7278,563.4526 381.0809,563.5312 381.4901,563.4492 382.0115,563.3473 382.9094,562.8008 384.1801,561.8072 385.4543,560.817 386.4799,560.1531 387.2586,559.8139 388.0399,559.4772 388.8289,559.3572 389.6326,559.4556 390.4364,559.5566 391.2289,559.9226 392.0153,560.5546 392.7284,561.1287 393.2395,561.8642 393.5407,562.7603 393.8446,563.6589 393.8584,564.5922 393.577,565.559 393.2982,566.5285 392.7223,567.555 391.8522,568.6367 390.5866,570.2104 389.2519,571.1281 387.8456,571.3862 386.4385,571.6452 384.9726,571.2956 383.4498,570.3391 Z"
         style="fill-rule:evenodd;fill:#02933e;" />
      <path
         id="path138"
         d="M 399.8773,551.2112 L 402.5681,549.4216 C 403.6118,550.8676 404.1143,552.2791 404.0763,553.6612 404.0374,555.0373 403.4884,556.3875 402.4283,557.7049 401.1187,559.3339 399.4836,560.2257 397.5283,560.3802 395.5712,560.533 393.6245,559.8346 391.695,558.2833 389.6525,556.6404 388.4914,554.8362 388.2074,552.8705 387.9277,550.9091 388.475,549.0677 389.8588,547.3471 391.0657,545.8467 392.4901,544.9835 394.133,544.7607 395.1059,544.6209 396.1962,544.8108 397.404,545.321 L 396.0158,548.2467 C 395.2647,547.8772 394.5171,547.7762 393.7764,547.9428 393.0374,548.106 392.4047,548.5186 391.8755,549.1756 391.1451,550.0846 390.8758,551.0869 391.0752,552.179 391.2712,553.2693 392.1008,554.4019 393.5641,555.5786 395.1162,556.8269 396.4448,557.439 397.5533,557.407 398.6609,557.3811 399.5734,556.9193 400.2899,556.0275 400.8208,555.3679 401.0669,554.6341 401.0289,553.8218 400.9935,553.012 400.6059,552.141 399.8773,551.2112 Z"
         style="fill-rule:evenodd;fill:#02933e;" />
      <path
         id="path140"
         d="M 407.7418,549.9146 L 395.5772,540.8121 397.4169,538.3543 402.203,541.9352 405.8037,537.1232 401.0177,533.5415 402.8547,531.0863 415.0193,540.1888 413.1814,542.644 407.8627,538.6642 404.2619,543.4762 409.5806,547.4559 407.7418,549.9146 Z"
         style="fill-rule:evenodd;fill:#02933e;" />
      <path
         id="path142"
         d="M 417.2984,517.7511 C 416.0484,516.7453 415.1488,515.7172 414.6024,514.6614 414.2044,513.8801 413.9471,513.0488 413.8383,512.1673 413.7322,511.2868 413.7891,510.4623 414.011,509.6957 414.3002,508.6684 414.8484,507.6601 415.6521,506.6613 417.105,504.8536 418.8273,503.8591 420.8215,503.6769 422.8131,503.4913 424.809,504.2027 426.8049,505.8075 428.7862,507.4011 429.8998,509.1864 430.1527,511.1625 430.404,513.1368 429.8066,515.0257 428.3597,516.8248 426.893,518.6489 425.169,519.6512 423.1929,519.8351 421.2134,520.0155 419.2486,519.3197 417.2984,517.7511 Z M 419.2667,515.1353 C 420.6531,516.2507 421.9671,516.7756 423.1981,516.7125 424.4309,516.6461 425.4426,516.1195 426.2369,515.1319 427.0294,514.146 427.3272,513.0505 427.1226,511.8427 426.9197,510.6402 426.1091,509.467 424.6873,508.3231 423.2827,507.1939 421.9869,506.6587 420.799,506.714 419.612,506.7752 418.608,507.3174 417.7879,508.3378 416.966,509.3591 416.6561,510.4641 416.8529,511.652 417.0524,512.8372 417.8526,513.9984 419.2667,515.1353 Z"
         style="fill-rule:evenodd;fill:#02933e;" />
      <path
         id="path144"
         d="M 432.803,505.457 L 418.2912,500.8583 419.227,497.905 431.2724,501.7216 433.5998,494.3776 436.0663,495.1597 432.803,505.457 Z"
         style="fill-rule:evenodd;fill:#02933e;" />
      <path
         id="path146"
         d="M 409.4779,532.7878 C 408.2278,531.7821 407.3283,530.7539 406.7818,529.6981 406.3839,528.9168 406.1266,528.0855 406.0178,527.2041 405.9116,526.3235 405.9686,525.4991 406.1905,524.7325 406.4797,523.7052 407.0279,522.6968 407.8316,521.698 409.2845,519.8903 411.0068,518.8958 413.001,518.7136 414.9926,518.528 416.9885,519.2394 418.9844,520.8442 420.9656,522.4379 422.0793,524.2231 422.3322,526.1992 422.5834,528.1735 421.986,530.0624 420.5392,531.8615 419.0725,533.6856 417.3485,534.6879 415.3724,534.8718 413.3929,535.0522 411.428,534.3564 409.4779,532.7878 Z M 411.4462,530.172 C 412.8326,531.2874 414.1465,531.8123 415.3776,531.7493 416.6104,531.6828 417.6221,531.1562 418.4164,530.1686 419.2089,529.1827 419.5067,528.0872 419.3021,526.8795 419.0992,525.6769 418.2886,524.5037 416.8668,523.3599 415.4622,522.2307 414.1664,521.6954 412.9785,521.7507 411.7915,521.812 410.7875,522.3541 409.9674,523.3745 409.1455,524.3958 408.8356,525.5008 409.0324,526.6887 409.2318,527.874 410.0321,529.0351 411.4462,530.172 Z"
         style="fill-rule:evenodd;fill:#02933e;" />
      <path
         id="path148"
         d="M 315.4317,345.456 C 317.8504,341.843 321.3351,339.3353 321.4693,333.3836 L 325.9931,333.3836 C 325.9931,340.3019 321.8312,345.7018 317.695,348.4718 L 315.4317,345.456 Z M 296.5722,353.751 L 329.0104,353.751 325.503,350.1395 332.0262,337.9104 336.2167,338.0446 332.6596,347.0875 333.3653,347.5444 337.313,343.9465 C 339.9955,338.8769 344.1031,331.0207 344.1031,323.5747 L 344.1031,318.2939 C 344.1031,316.0396 341.1189,305.8461 340.3288,302.4503 L 339.2084,302.6041 334.2459,313.8969 329.7689,312.2578 C 329.7689,307.2937 330.3992,301.4295 329.3497,296.8303 328.1765,291.6868 324.734,288.1146 324.4867,285.1003 L 323.3557,285.1908 319.203,303.9612 316.1841,303.9612 C 311.2457,303.9612 317.2593,284.4639 305.6257,278.3071 305.6257,288.9816 301.675,304.1919 295.9359,308.4428 L 289.0251,288.8701 C 283.5258,292.8977 284.6386,309.9944 280.7271,309.9944 L 277.7082,309.9944 278.4426,309.6114 273.1815,299.433 C 270.4748,301.4129 267.9023,310.3488 267.9023,315.2781 L 267.9023,331.8727 C 267.9023,338.7412 276.4838,350.9131 280.7271,353.751 L 289.7821,353.751 C 288.2998,351.5389 283.7474,344.7714 283.7474,341.6786 L 283.7474,338.6628 288.2742,338.6628 C 288.4054,344.7261 292.8793,351.278 296.5722,353.751 Z M 292.0425,335.6455 L 295.8152,335.6455 294.9452,336.1537 304.0002,350.6085 301.099,352.9985 C 296.3083,349.7912 292.0425,343.6359 292.0425,335.6455 Z"
         style="fill-rule:evenodd;fill:#ffffff;" />
      <path
         id="path150"
         d="M 330.5198,358.2823 L 277.7082,358.2823 277.7082,364.3154 330.5198,364.3154 330.5198,358.2823 Z"
         style="fill-rule:evenodd;fill:#ffffff;" />
      <path
         id="path152"
         d="M 330.5198,368.8422 L 277.7082,368.8422 C 277.8877,376.9155 281.5896,384.6843 289.7821,384.6843 L 319.203,384.6843 C 326.6249,384.6843 330.5198,376.905 330.5198,368.8422 Z"
         style="fill-rule:evenodd;fill:#ffffff;" />
      <path
         id="path154"
         d="M 317.695,389.208 L 291.29,389.208 C 289.5529,389.208 289.0251,389.7403 289.0251,391.4759 L 289.0251,392.9869 C 289.0251,394.7255 289.5529,395.2457 291.29,395.2457 L 317.695,395.2457 C 319.4322,395.2457 319.9599,394.7255 319.9599,392.9869 L 319.9599,391.4759 C 319.9599,389.7403 319.4322,389.208 317.695,389.208 Z"
         style="fill-rule:evenodd;fill:#ffffff;" />
      <path
         id="path156"
         d="M 368.7484,463.4003 C 362.6127,452.8299 340.3544,434.4816 323.7312,434.4816 322.3665,433.5693 322.4058,432.9722 320.7124,432.9722 L 291.29,432.9722 C 288.3496,432.9722 286.4345,433.2029 283.8862,433.8618 283.2694,434.0262 279.0774,436.6032 279.0925,436.8686 L 279.8465,437.6195 C 281.2609,436.377 281.2835,435.988 283.7474,435.988 288.0766,435.988 292.0425,439.2345 292.0425,443.5351 292.0425,444.5017 289.0266,446.6504 288.2742,447.3064 294.6964,448.8007 301.4443,449.8728 308.4561,451.2646 321.59,453.8613 314.729,455.1611 321.3819,461.7265 326.1801,466.4614 326.6912,470.7152 329.7538,476.7423 331.8181,480.788 340.3288,488.6066 340.3288,489.555 340.3288,494.8192 328.9064,483.1962 328.258,482.7619 L 325.5151,490.4281 C 325.6508,492.0763 325.9931,492.5377 325.9931,494.8373 L 325.9931,495.5897 C 325.9931,497.4595 324.3299,500.6322 321.4693,500.8749 322.5068,502.4251 323.7312,502.8307 323.7312,504.6432 323.7312,505.4545 321.5251,507.6621 319.9599,507.6621 L 317.695,507.6621 C 314.2419,507.6621 313.2467,506.6804 313.1668,503.1323 L 306.3782,503.1323 C 297.7559,503.1323 291.1679,496.781 286.0063,493.3263 286.8522,503.4384 303.9203,512.9397 314.6777,512.9397 L 322.2203,512.9397 C 328.2926,512.9397 334.2564,509.9224 340.3288,509.9224 L 344.1031,509.9224 C 351.2581,509.9224 340.4374,573.2969 350.8902,573.2969 356.2599,573.2969 358.4856,571.3472 362.2041,571.0366 361.5511,568.5847 354.6645,558.441 354.6645,558.2118 354.6645,554.8582 368.8947,542.0636 371.8306,539.1608 376.3679,534.6657 384.2573,524.3592 387.8582,518.9759 381.8521,510.0038 381.9034,502.0194 379.3716,489.7435 375.8311,472.582 376.1553,476.1693 368.7484,463.4003 Z"
         style="fill-rule:evenodd;fill:#ffffff;" />
      <path
         id="path158"
         d="M 315.2417,491.1474 C 310.2867,490.7026 305.3603,489.9154 300.5531,488.5568 295.099,487.0157 289.9721,484.7282 285.4649,481.7923 L 286.2234,490.2834 288.2184,489.4148 C 290.3641,492.6794 299.2412,499.364 304.1193,499.364 L 318.4535,499.364 C 320.6038,499.364 319.8272,499.1227 320.7124,497.8546 317.3181,497.8546 313.1668,497.3087 313.1668,494.0788 313.1668,492.6734 314.0097,491.8124 315.2417,491.1474 Z"
         style="fill-rule:evenodd;fill:#ffffff;" />
      <path
         id="path160"
         d="M 300.8396,487.5344 C 306.2183,489.0544 311.7629,489.8491 317.3377,490.2487 320.1997,489.1977 323.6302,488.2371 324.4867,485.0283 322.1268,485.2243 321.8041,485.7823 319.203,485.7823 316.8732,485.7823 315.6081,484.1552 314.6777,482.7619 L 313.8107,481.2962 C 300.9075,481.2525 293.6439,476.5599 286.0063,471.445 285.6987,475.1515 284.4999,474.209 284.4999,477.4842 L 284.4999,478.2382 C 284.4999,479.8004 284.8693,479.7928 285.7077,480.6795 290.5089,483.8732 295.5981,486.0537 300.8396,487.5344 Z"
         style="fill-rule:evenodd;fill:#ffffff;" />
      <path
         id="path162"
         d="M 299.8881,474.9177 C 308.628,478.3317 313.0959,477.4842 324.639,477.3319 L 326.1212,479.1143 326.5389,478.3377 324.4867,473.7114 C 321.8508,474.3221 321.9428,475.2208 319.203,475.2208 L 316.1841,475.2208 C 314.6204,475.2208 312.4143,473.0117 312.4143,472.202 312.4143,468.8273 316.0544,469.162 317.695,466.9183 310.6516,466.9183 306.3601,465.7481 300.5033,464.4966 297.2915,463.8075 287.662,458.6202 286.7648,458.6202 285.9505,458.6202 283.7474,460.8278 283.7474,462.3945 L 283.7474,466.1673 C 287.5624,465.255 287.5459,467.8517 290.7155,470.5101 292.7753,472.2397 296.9718,473.7808 299.8881,474.9177 Z"
         style="fill-rule:evenodd;fill:#ffffff;" />
    </g>
  </g>
  <g
     id="g168" />
  <g
     id="g170" />
</svg>
