<?xml version="1.0" standalone="no"?>
<!DOCTYPE svg PUBLIC "-//W3C//DTD SVG 20010904//EN"
 "http://www.w3.org/TR/2001/REC-SVG-20010904/DTD/svg10.dtd">
<svg version="1.0" xmlns="http://www.w3.org/2000/svg"
 width="256.000000pt" height="256.000000pt" viewBox="0 0 256.000000 256.000000"
 preserveAspectRatio="xMidYMid meet">

<g transform="translate(0.000000,256.000000) scale(0.100000,-0.100000)"
fill="#000000" stroke="none">
<path d="M1069 2313 l-206 -135 9 -42 c39 -168 -109 -280 -258 -197 l-52 30
-97 -69 c-54 -38 -100 -72 -103 -74 -2 -3 5 -17 17 -32 56 -71 74 -227 73
-634 -2 -363 4 -415 61 -535 65 -134 154 -229 283 -301 34 -19 138 -59 230
-89 91 -30 186 -66 210 -79 l44 -25 44 25 c24 13 119 49 210 79 92 30 196 70
230 89 167 93 280 240 326 423 18 66 19 110 18 406 -1 414 16 569 73 641 12
15 19 29 17 32 -3 2 -49 36 -103 74 l-97 69 -52 -30 c-63 -35 -119 -38 -176
-9 -72 36 -103 115 -82 206 l9 42 -208 136 c-114 75 -209 136 -211 135 -2 0
-96 -61 -209 -136z m387 -52 l168 -109 -3 -56 c-5 -105 38 -182 123 -222 65
-30 140 -32 206 -3 l49 21 55 -39 c44 -30 55 -42 51 -58 -3 -11 -15 -53 -25
-94 -30 -114 -43 -324 -36 -601 7 -285 0 -337 -64 -467 -81 -165 -199 -251
-461 -337 -90 -30 -181 -62 -201 -72 -37 -17 -39 -17 -75 0 -21 10 -112 42
-202 72 -262 86 -380 172 -461 337 -64 131 -71 182 -64 472 7 280 -5 481 -36
596 -10 41 -22 83 -25 94 -4 16 7 28 51 58 l55 39 49 -21 c66 -29 141 -27 206
3 85 40 128 117 123 222 l-3 56 165 108 c90 60 169 109 176 109 7 1 87 -48
179 -108z"/>
<path d="M1171 1974 c-63 -13 -146 -49 -185 -79 -15 -11 -16 -18 -8 -28 9 -11
-3 -22 -61 -55 -86 -49 -194 -86 -299 -102 l-77 -13 20 -50 20 -50 -24 -49
-25 -49 42 6 c60 9 231 53 275 71 28 11 48 13 79 5 24 -5 42 -5 42 0 0 5 -9 9
-20 9 -11 0 -20 5 -20 10 0 6 11 10 25 10 14 0 25 4 25 8 0 5 27 20 60 35 l60
26 0 -88 c0 -80 3 -91 30 -134 17 -26 30 -55 30 -65 0 -15 14 -17 115 -20 112
-3 115 -2 115 19 0 12 15 51 33 88 26 54 32 77 32 133 0 38 1 68 1 68 13 0
114 -54 114 -61 0 -5 14 -9 31 -9 17 0 28 -4 24 -10 -3 -5 -15 -10 -26 -10
-10 0 -19 -4 -19 -9 0 -5 16 -5 38 1 31 8 57 3 160 -26 116 -34 232 -55 232
-43 0 2 -9 24 -19 47 -19 42 -19 43 0 84 26 57 24 66 -13 66 -123 0 -409 118
-404 166 2 24 -109 82 -190 99 -84 18 -129 18 -213 -1z m258 -24 c61 -20 131
-57 131 -69 0 -5 -60 -100 -75 -119 -2 -2 -29 12 -61 30 -54 30 -66 33 -145
33 -77 0 -92 -3 -149 -33 -35 -18 -64 -31 -64 -30 -1 2 -15 23 -32 48 -17 25
-34 50 -38 57 -9 17 59 60 131 83 82 27 224 26 302 0z m264 -175 c81 -37 213
-75 264 -75 38 0 41 -12 17 -63 -15 -30 -15 -36 0 -72 9 -21 15 -40 12 -42 -6
-7 -179 34 -262 62 -95 32 -264 105 -264 114 0 7 40 68 77 119 l24 32 30 -20
c16 -12 62 -36 102 -55z m-646 -5 c31 -48 43 -74 36 -81 -34 -34 -434 -169
-503 -169 -17 0 -18 2 -3 39 14 36 14 44 -1 82 -9 23 -16 42 -14 44 2 1 43 9
93 19 101 19 189 52 273 101 31 18 60 34 64 34 5 1 29 -31 55 -69z m319 35
c27 -8 63 -26 79 -40 l30 -25 -21 -18 c-12 -10 -24 -27 -28 -38 -3 -10 -15
-30 -26 -44 l-20 -25 4 65 c7 88 -5 103 -29 35 -10 -30 -21 -55 -25 -55 -4 0
-12 17 -18 39 -7 21 -19 44 -27 51 -13 11 -15 8 -15 -20 0 -34 -28 -110 -41
-110 -12 0 -39 67 -39 99 0 17 -4 31 -9 31 -9 0 -21 -57 -21 -105 0 -28 -3
-26 -40 33 -22 34 -40 65 -40 67 0 9 93 58 123 65 52 13 110 11 163 -5z m-61
-132 c4 -21 7 -45 9 -53 1 -8 14 8 30 35 l27 50 -5 -67 c-3 -38 -4 -68 -2 -68
2 0 19 23 37 52 l33 51 8 -29 c8 -29 -2 -96 -21 -144 -10 -25 -10 -25 -10 -2
-1 13 -5 21 -10 17 -5 -3 -13 4 -16 15 -6 17 -9 19 -22 9 -13 -12 -43 -62 -43
-73 0 -3 7 -3 15 0 8 4 15 1 15 -6 0 -7 7 -10 15 -6 9 3 15 0 15 -9 0 -11 -16
-14 -73 -13 -64 1 -75 4 -90 25 -21 27 -14 51 9 32 20 -17 17 5 -3 24 -16 13
-20 14 -37 1 -19 -14 -19 -14 2 -44 28 -37 27 -40 -2 -40 -43 0 -70 52 -75
143 -2 46 1 77 7 77 9 0 52 -89 52 -109 0 -6 4 -11 9 -11 5 0 4 19 -1 44 -5
25 -8 60 -6 78 4 29 5 30 13 13 5 -11 19 -34 31 -52 22 -32 34 -34 34 -4 0 21
33 101 42 101 4 0 10 -17 13 -37z"/>
<path d="M1220 1900 c0 -26 2 -29 14 -18 9 8 10 15 4 19 -6 4 -7 12 -4 18 4 6
2 11 -3 11 -6 0 -11 -14 -11 -30z"/>
<path d="M1294 1916 c-14 -38 22 -74 48 -48 6 6 0 8 -16 5 -23 -5 -26 -2 -26
21 0 31 33 37 49 9 6 -10 11 -13 11 -7 1 30 -56 47 -66 20z"/>
<path d="M1150 1910 c-8 -5 -10 -10 -5 -10 6 0 17 5 25 10 8 5 11 10 5 10 -5
0 -17 -5 -25 -10z"/>
<path d="M1372 1878 c-10 -28 -9 -30 2 -15 14 18 26 11 39 -23 4 -10 6 -8 6 7
1 12 6 25 11 28 8 5 7 11 -1 21 -20 24 -44 16 -57 -18z m52 13 c3 -4 3 -11 0
-14 -8 -8 -34 3 -34 14 0 11 27 12 34 0z"/>
<path d="M1082 1881 c-12 -7 -11 -14 2 -40 14 -27 20 -30 36 -21 11 6 19 18
19 28 -1 16 -2 16 -6 0 -2 -10 -11 -18 -19 -18 -16 0 -19 16 -4 25 14 9 12 35
-2 35 -7 0 -19 -4 -26 -9z m28 -9 c0 -13 -12 -22 -22 -16 -10 6 -1 24 13 24 5
0 9 -4 9 -8z"/>
<path d="M1150 1878 c0 -7 5 -20 11 -28 8 -12 9 -10 4 7 -4 15 -1 23 12 26 14
4 13 5 -4 6 -13 0 -23 -5 -23 -11z"/>
<path d="M1458 1862 c-28 -32 -29 -41 -6 -53 19 -9 21 -9 11 2 -20 20 -15 31
10 24 19 -5 20 -5 4 5 -24 15 -12 33 14 20 10 -6 19 -8 19 -6 0 3 -8 10 -19
15 -14 8 -22 6 -33 -7z"/>
<path d="M1635 1729 c-4 -5 1 -19 11 -30 20 -22 12 -38 -11 -19 -8 7 -15 8
-15 2 0 -15 32 -24 43 -13 7 7 5 17 -8 31 -21 23 -13 39 10 20 8 -7 15 -8 15
-2 0 5 -7 13 -16 16 -21 8 -22 8 -29 -5z"/>
<path d="M1690 1690 c-12 -30 -7 -50 13 -50 8 0 8 3 -2 9 -17 11 -6 49 17 53
16 3 16 4 0 10 -12 5 -19 -1 -28 -22z"/>
<path d="M1746 1665 c-7 -29 -1 -45 17 -45 8 0 8 3 -1 9 -9 5 -11 17 -6 34 3
15 4 27 1 27 -3 0 -8 -11 -11 -25z"/>
<path d="M1801 1649 c-14 -39 -14 -50 0 -27 5 10 17 15 27 12 16 -5 16 -5 0 6
-9 6 -15 17 -12 25 4 8 4 15 1 15 -3 0 -10 -14 -16 -31z"/>
<path d="M963 1769 c-9 -9 -8 -19 3 -40 16 -31 27 -39 17 -13 -3 9 0 20 8 26
11 8 10 9 -3 4 -24 -7 -32 11 -11 23 10 6 13 11 8 11 -6 0 -16 -5 -22 -11z"/>
<path d="M852 1687 c-2 -27 -6 -36 -14 -31 -10 5 -10 4 -1 -6 18 -20 25 -7 20
36 l-4 39 -1 -38z"/>
<path d="M871 1715 c0 -5 6 -21 14 -35 8 -14 14 -20 14 -15 0 6 -6 21 -14 35
-8 14 -14 21 -14 15z"/>
<path d="M900 1700 c6 -11 13 -20 16 -20 2 0 0 9 -6 20 -6 11 -13 20 -16 20
-2 0 0 -9 6 -20z"/>
<path d="M946 1693 c-6 -14 -5 -15 5 -6 7 7 10 15 7 18 -3 3 -9 -2 -12 -12z"/>
<path d="M800 1696 c0 -2 8 -10 18 -17 15 -13 16 -12 3 4 -13 16 -21 21 -21
13z"/>
<path d="M779 1682 c7 -5 11 -14 7 -20 -3 -5 1 -15 8 -22 12 -9 13 -7 7 16 -4
15 -14 29 -22 32 -12 3 -12 2 0 -6z"/>
<path d="M690 1660 c-18 -12 -2 -12 25 0 13 6 15 9 5 9 -8 0 -22 -4 -30 -9z"/>
<path d="M751 1653 c0 -4 4 -17 9 -28 8 -19 9 -19 9 2 1 12 -3 25 -9 28 -5 3
-10 3 -9 -2z"/>
<path d="M625 1641 c-3 -5 -2 -12 3 -15 5 -3 9 1 9 9 0 17 -3 19 -12 6z"/>
<path d="M691 1630 c0 -8 4 -22 9 -30 12 -18 12 -2 0 25 -6 13 -9 15 -9 5z"/>
<path d="M667 1603 c5 -13 2 -15 -17 -10 -16 4 -20 3 -12 -5 14 -14 42 -3 42
17 0 8 -4 15 -10 15 -5 0 -7 -7 -3 -17z"/>
<path d="M728 1603 c7 -3 16 -2 19 1 4 3 -2 6 -13 5 -11 0 -14 -3 -6 -6z"/>
<path d="M1635 1562 c-22 -2 -44 -7 -48 -12 -7 -6 66 -4 98 4 22 5 -13 11 -50
8z"/>
<path d="M895 1549 c22 -4 49 -8 60 -8 17 -1 17 1 5 9 -8 5 -35 9 -60 9 l-45
-1 40 -9z"/>
<path d="M888 1513 c18 -2 45 -2 60 0 15 2 0 4 -33 4 -33 0 -45 -2 -27 -4z"/>
<path d="M1608 1513 c18 -2 45 -2 60 0 15 2 0 4 -33 4 -33 0 -45 -2 -27 -4z"/>
<path d="M890 1480 l-35 -7 45 -2 c25 0 52 4 60 9 12 8 10 9 -10 9 -14 -1 -41
-5 -60 -9z"/>
<path d="M1595 1480 c11 -5 38 -8 60 -8 38 0 39 1 10 8 -16 4 -43 8 -60 8 -25
1 -27 -1 -10 -8z"/>
<path d="M1857 1443 c-18 -23 -20 -23 -43 -9 -36 24 -43 18 -9 -9 16 -13 26
-27 22 -31 -4 -4 -13 -2 -19 4 -7 7 -17 12 -22 12 -6 0 3 -11 19 -24 17 -13
27 -28 23 -32 -5 -4 -17 1 -28 11 -11 10 -20 14 -20 9 0 -4 12 -18 28 -30 15
-12 24 -26 20 -30 -5 -4 -17 1 -28 11 -11 10 -20 14 -20 9 0 -4 12 -18 28 -30
15 -12 24 -26 20 -30 -5 -4 -16 0 -26 9 -10 10 -22 17 -25 17 -4 0 7 -13 25
-29 18 -16 30 -33 25 -37 -4 -4 -14 2 -23 14 -8 12 -20 22 -27 22 -6 0 4 -16
23 -35 18 -19 30 -38 27 -42 -4 -4 -14 3 -23 15 -8 12 -20 22 -26 22 -5 0 4
-16 22 -36 24 -27 28 -39 19 -45 -10 -6 -10 -11 0 -23 8 -9 9 -16 3 -16 -5 0
-8 -25 -7 -60 1 -33 -1 -57 -6 -54 -13 8 -11 -10 2 -23 6 -6 10 -16 7 -23 -2
-6 -14 8 -28 32 -17 31 -19 39 -7 29 24 -19 21 2 -2 23 -19 17 -20 17 -29 -21
-6 -21 -13 -55 -16 -75 -9 -48 -69 -168 -99 -196 l-24 -22 -32 82 c-57 146
-137 246 -226 284 -32 13 -35 18 -35 54 0 48 15 53 24 8 9 -46 15 -30 9 25
l-6 47 -78 0 c-76 0 -79 -1 -79 -24 0 -13 -3 -37 -6 -54 -6 -29 -9 -31 -58
-34 -48 -3 -51 -5 -54 -31 -3 -22 1 -30 17 -34 23 -6 27 -18 10 -29 -7 -4 -8
-22 -4 -53 4 -25 9 -57 10 -71 1 -14 9 -42 18 -62 14 -32 20 -37 61 -43 45 -7
46 -8 46 -42 0 -20 -9 -46 -20 -60 -27 -35 -26 -78 5 -108 73 -73 189 27 125
108 -12 16 -20 40 -20 65 l0 40 35 -10 c19 -6 37 -18 41 -27 4 -9 9 -64 12
-123 l5 -106 -49 -8 c-99 -16 -273 0 -289 27 -3 5 -1 17 4 28 9 16 3 23 -47
54 -80 49 -158 131 -193 203 -23 46 -54 164 -59 223 0 3 -11 -6 -25 -19 -30
-28 -34 -51 -5 -25 18 17 20 17 14 2 -3 -9 -2 -17 3 -17 5 0 14 -26 21 -58 24
-117 107 -235 214 -304 l51 -33 -37 -10 c-30 -9 -41 -19 -57 -55 -11 -24 -22
-46 -24 -48 -2 -3 -27 10 -54 28 -111 71 -209 218 -250 374 -12 44 -19 81 -16
84 2 2 22 -10 43 -27 22 -17 44 -31 50 -31 11 0 52 61 52 76 0 5 -9 -2 -19
-15 l-19 -25 0 36 c0 25 7 43 24 59 13 12 24 27 24 32 0 6 -11 0 -25 -13 -14
-13 -25 -19 -25 -13 0 5 11 20 25 33 14 13 25 28 25 33 0 6 -11 0 -25 -13 -34
-32 -32 -13 2 22 15 15 22 28 16 28 -6 0 -16 -7 -23 -15 -7 -9 -15 -13 -18
-10 -3 3 7 19 23 35 16 17 24 30 18 30 -6 0 -16 -7 -23 -15 -7 -9 -15 -13 -18
-10 -3 3 5 16 18 30 13 14 19 25 13 25 -6 0 -13 -6 -16 -12 -2 -7 -8 -10 -12
-5 -5 4 2 19 16 34 13 15 16 21 6 14 -28 -22 -33 -4 -6 27 13 15 17 21 9 15
-21 -19 -27 -16 -28 18 0 18 5 32 14 36 8 3 14 10 14 15 0 6 -6 5 -15 -2 -12
-10 -15 -10 -15 0 0 7 8 19 18 27 16 14 16 14 0 9 -23 -7 -24 20 -2 28 9 4 14
9 11 12 -3 3 -17 -2 -30 -11 -25 -16 -26 -15 -43 10 -9 14 -19 23 -21 21 -3
-3 5 -19 17 -35 21 -31 16 -42 -9 -18 -11 10 -11 8 -2 -10 6 -12 16 -25 21
-28 6 -3 10 -11 10 -17 0 -6 -11 -1 -25 12 -14 13 -25 19 -25 13 0 -5 11 -20
25 -33 30 -28 34 -51 5 -25 -30 27 -34 12 -5 -15 33 -31 32 -47 -3 -25 l-27
18 29 -32 c31 -33 29 -56 -2 -28 -10 10 -23 17 -28 17 -5 0 7 -14 26 -29 19
-16 32 -33 27 -37 -4 -4 -16 1 -27 11 -11 10 -23 16 -26 12 -3 -3 8 -15 24
-27 26 -20 29 -28 30 -75 l0 -54 -25 16 c-13 9 -26 13 -29 11 -3 -3 11 -15 31
-27 43 -25 38 -48 -5 -26 -47 24 -49 17 -2 -11 23 -14 42 -29 42 -35 0 -12 -7
-11 -33 3 -12 6 -32 12 -44 14 -19 2 -23 -3 -23 -23 0 -83 78 -272 149 -361
24 -30 72 -75 107 -100 57 -41 64 -50 59 -73 -5 -24 -1 -28 54 -53 168 -75
414 -75 582 0 56 25 60 30 55 54 -4 24 1 31 43 59 68 43 160 145 199 219 52
97 109 282 87 282 -4 0 -24 -13 -45 -30 -42 -33 -50 -36 -50 -17 0 7 16 21 36
31 20 9 34 19 31 22 -3 3 -19 -2 -36 -11 -25 -12 -31 -13 -31 -2 0 7 16 21 36
31 20 9 34 19 31 22 -3 3 -19 -2 -36 -11 -24 -12 -31 -13 -31 -3 0 8 16 22 36
33 20 11 31 21 26 23 -6 2 -22 -4 -36 -14 -21 -13 -26 -14 -26 -2 0 7 14 22
31 32 17 10 28 20 26 23 -3 2 -17 -3 -31 -12 -21 -14 -26 -15 -26 -3 0 7 14
22 30 31 17 10 30 23 30 28 0 6 -13 1 -30 -11 -21 -15 -30 -17 -30 -8 0 7 14
22 30 33 16 11 30 24 30 29 0 4 -12 1 -26 -9 -40 -26 -42 -8 -3 25 19 16 30
29 25 30 -5 0 -18 -7 -28 -17 -10 -9 -21 -13 -25 -9 -4 3 9 20 28 36 19 16 30
29 25 30 -5 0 -18 -7 -28 -17 -31 -28 -33 -5 -2 29 l29 32 -27 -17 c-35 -22
-36 -8 -3 23 29 27 25 42 -5 15 -29 -26 -25 -3 5 25 28 27 35 52 7 27 -29 -27
-35 -20 -11 13 13 16 21 32 18 34 -2 2 -12 -7 -22 -21z m-627 -275 c0 -30 -13
-58 -27 -58 -11 0 -14 6 -9 23 3 12 6 28 6 35 0 6 7 12 15 12 8 0 15 -6 15
-12z m-60 -77 c0 -12 -26 -21 -61 -21 -28 0 -37 9 -22 23 10 10 83 8 83 -2z
m197 -27 c85 -41 157 -138 209 -282 l27 -73 -29 -30 -30 -29 -59 58 c-42 40
-77 64 -115 77 -49 18 -55 24 -65 59 -6 21 -9 52 -7 68 4 29 5 28 44 -31 22
-34 43 -61 48 -61 4 0 -12 30 -36 66 -24 36 -44 74 -44 83 0 36 -38 56 -150
77 -44 8 -55 12 -33 13 22 1 37 8 45 22 12 19 19 20 78 15 38 -4 87 -17 117
-32z m-137 -44 c20 -5 45 -17 55 -25 19 -15 15 -16 -45 -12 -36 2 -74 7 -85
11 -13 5 -11 2 5 -8 14 -8 39 -15 57 -16 26 0 30 -3 26 -20 -5 -17 -11 -19
-47 -14 -83 13 -115 43 -81 78 19 18 63 21 115 6z m580 -102 c0 -17 27 -7 63
23 21 17 41 29 44 25 10 -10 -27 -132 -62 -204 -54 -113 -153 -225 -236 -267
l-29 -15 -25 50 c-17 34 -32 50 -44 50 -52 0 -50 12 7 49 114 75 196 192 223
320 l11 55 24 -40 c13 -21 24 -42 24 -46z m-1110 27 c0 -11 -19 -4 -41 15
l-24 21 33 -16 c17 -8 32 -18 32 -20z m590 5 c0 -5 -9 -10 -21 -10 -11 0 -17
5 -14 10 3 6 13 10 21 10 8 0 14 -4 14 -10z m-91 -26 c35 -7 70 -10 78 -7 7 3
13 0 13 -5 0 -26 -136 -26 -167 -1 -17 14 -18 43 -1 33 7 -5 41 -13 77 -20z
m41 -72 c0 -12 -10 -14 -50 -9 -60 7 -70 12 -70 36 0 16 4 17 60 3 40 -10 60
-20 60 -30z m50 8 c0 -5 -9 -10 -21 -10 -11 0 -17 5 -14 10 3 6 13 10 21 10 8
0 14 -4 14 -10z m-38 -44 c16 -23 6 -29 -43 -23 -49 6 -79 20 -79 38 0 11 114
-2 122 -15z m48 4 c0 -5 -7 -10 -15 -10 -8 0 -15 5 -15 10 0 6 7 10 15 10 8 0
15 -4 15 -10z m173 -115 c42 -40 60 -75 40 -75 -5 0 -23 -9 -41 -20 -29 -18
-31 -23 -21 -41 9 -17 8 -23 -2 -30 -11 -6 -16 1 -20 29 -11 62 -17 182 -9
182 3 0 27 -20 53 -45z m-422 -170 c71 -32 181 -49 260 -41 54 6 151 34 209
60 12 5 24 -10 48 -60 18 -36 32 -68 30 -69 -16 -14 -97 -47 -147 -60 -138
-36 -316 -29 -437 16 -91 34 -92 36 -59 113 15 36 31 66 35 66 4 0 32 -11 61
-25z"/>
<path d="M1860 884 c0 -13 -8 -15 -42 -9 -29 4 -38 3 -29 -3 11 -8 9 -12 -9
-22 -17 -9 -21 -18 -17 -39 4 -21 1 -29 -16 -36 -14 -7 -22 -18 -21 -33 0 -15
-4 -21 -13 -18 -16 6 -17 -6 -2 -21 16 -16 1 -35 -22 -28 -11 4 -19 2 -19 -4
0 -6 -7 -11 -15 -11 -15 0 -42 -39 -28 -41 4 -1 -5 -4 -22 -8 -21 -4 -31 -13
-33 -29 -3 -20 0 -23 25 -20 34 4 44 -15 11 -22 -15 -4 -19 -8 -11 -13 19 -12
53 11 53 34 0 11 4 17 10 14 16 -10 50 14 50 35 0 13 5 18 15 14 8 -4 15 -2
15 4 0 5 -8 13 -17 16 -15 6 -15 8 0 23 13 13 19 14 31 3 19 -15 22 0 4 18 -9
9 -7 12 9 12 27 0 47 25 40 50 -3 13 1 21 14 25 22 7 35 43 20 58 -17 17 -13
26 8 20 14 -3 20 2 23 21 3 14 1 26 -3 26 -5 0 -9 -7 -9 -16z m-33 -55 c15
-15 5 -39 -17 -39 -21 0 -44 25 -35 40 8 13 38 13 52 -1z m-37 -75 c11 -12 11
-18 -2 -30 -18 -18 -48 -8 -48 15 0 33 28 42 50 15z m-85 -114 c3 -5 2 -10 -4
-10 -6 0 -8 -7 -5 -15 9 -22 -24 -31 -43 -12 -9 8 -13 23 -10 31 7 18 52 22
62 6z m-65 -50 c3 -1 -8 -6 -24 -11 -33 -9 -42 -6 -31 10 5 9 29 9 55 1z"/>
<path d="M1072 430 c-9 -38 -1 -57 12 -25 3 8 12 12 21 9 8 -4 22 -1 30 6 13
11 15 8 15 -18 0 -25 14 -42 35 -42 15 0 35 37 35 63 0 24 -3 28 -10 17 -5 -8
-10 -25 -10 -37 0 -17 -6 -23 -21 -23 -19 0 -21 4 -16 36 4 25 2 34 -6 31 -6
-2 -18 2 -25 10 -26 26 -49 15 -60 -27z m58 10 c0 -5 -9 -10 -20 -10 -11 0
-20 5 -20 10 0 6 9 10 20 10 11 0 20 -4 20 -10z"/>
<path d="M1412 458 c-17 -17 -15 -35 8 -58 16 -16 25 -18 40 -10 11 6 20 18
20 27 0 15 -2 14 -14 -2 -18 -25 -49 -13 -44 17 2 17 9 23 26 22 12 0 22 3 22
8 0 12 -44 10 -58 -4z"/>
<path d="M1374 440 c3 -14 6 -35 6 -47 0 -13 5 -23 10 -23 13 0 2 70 -13 85
-6 7 -8 2 -3 -15z"/>
<path d="M1230 406 c0 -45 1 -46 30 -46 35 0 43 13 32 55 -6 23 -15 31 -35 33
-26 3 -27 1 -27 -42z m50 14 c0 -5 -7 -10 -15 -10 -8 0 -15 5 -15 10 0 6 7 10
15 10 8 0 15 -4 15 -10z m0 -35 c0 -8 -7 -15 -15 -15 -8 0 -15 7 -15 15 0 8 7
15 15 15 8 0 15 -7 15 -15z"/>
<path d="M1307 408 c3 -24 7 -45 9 -47 2 -2 16 0 31 4 l28 8 -25 6 c-19 5 -26
14 -28 39 -2 18 -7 32 -12 32 -4 0 -6 -19 -3 -42z"/>
<path d="M918 1448 c-27 -6 -48 -14 -48 -18 0 -4 23 -3 50 3 28 5 50 14 50 18
0 5 -1 8 -2 8 -2 -1 -24 -6 -50 -11z"/>
<path d="M1575 1452 c6 -6 33 -13 60 -16 57 -7 35 7 -30 18 -27 5 -37 4 -30
-2z"/>
<path d="M928 1412 c-27 -9 -48 -19 -48 -23 0 -7 89 16 98 26 12 12 -6 11 -50
-3z"/>
<path d="M1570 1420 c0 -9 88 -35 95 -28 3 2 -18 11 -45 20 -28 9 -50 13 -50
8z"/>
<path d="M1550 1395 c0 -7 78 -45 92 -45 7 1 -7 12 -32 25 -45 24 -60 29 -60
20z"/>
<path d="M930 1370 c-19 -11 -28 -19 -20 -19 8 0 31 8 50 19 19 11 28 19 20
19 -8 0 -31 -8 -50 -19z"/>
<path d="M968 1350 c-31 -17 -68 -51 -42 -39 46 22 84 44 84 51 0 10 2 11 -42
-12z"/>
<path d="M1540 1363 c0 -9 74 -53 87 -53 4 0 -1 8 -12 16 -31 24 -75 45 -75
37z"/>
<path d="M1160 1336 c0 -13 7 -29 15 -36 9 -7 14 -22 13 -34 -3 -20 2 -21 86
-24 84 -3 88 -2 83 17 -3 12 3 27 14 37 10 9 19 28 19 41 0 23 -1 23 -115 23
-114 0 -115 0 -115 -24z"/>
<path d="M978 1312 c-53 -39 -47 -49 7 -12 25 17 45 33 45 35 0 10 -17 3 -52
-23z"/>
<path d="M1550 1310 c19 -16 41 -30 49 -30 8 0 -5 14 -27 30 -53 38 -68 38
-22 0z"/>
<path d="M735 1320 c-3 -5 -1 -10 4 -10 6 0 11 5 11 10 0 6 -2 10 -4 10 -3 0
-8 -4 -11 -10z"/>
<path d="M1500 1313 c0 -13 72 -75 79 -68 2 3 2 6 0 8 -2 1 -21 18 -42 36 -20
19 -37 30 -37 24z"/>
<path d="M994 1275 c-21 -19 -34 -34 -29 -34 6 0 28 15 49 34 22 19 35 35 29
35 -5 0 -27 -16 -49 -35z"/>
<path d="M1022 1250 c-18 -22 -29 -40 -23 -40 5 0 24 18 41 40 41 52 25 52
-18 0z"/>
<path d="M1505 1250 c21 -22 41 -37 44 -35 6 7 -60 75 -73 75 -6 0 7 -18 29
-40z"/>
<path d="M1055 1230 c-38 -55 -28 -58 13 -4 18 24 29 44 24 44 -5 0 -22 -18
-37 -40z"/>
<path d="M1456 1258 c21 -36 46 -68 55 -68 11 0 -43 79 -54 80 -5 0 -5 -6 -1
-12z"/>
<path d="M1420 1254 c0 -12 53 -95 57 -90 3 3 -7 26 -21 51 -25 41 -36 54 -36
39z"/>
<path d="M1103 1238 c-16 -19 -44 -78 -38 -78 7 0 57 81 52 86 -2 3 -9 -1 -14
-8z"/>
<path d="M1120 1195 c-11 -26 -18 -50 -16 -53 3 -3 15 17 26 43 11 26 18 50
16 53 -3 3 -15 -17 -26 -43z"/>
<path d="M1404 1205 c19 -45 35 -73 36 -60 0 17 -35 95 -43 95 -4 0 -1 -16 7
-35z"/>
<path d="M1156 1183 c-9 -25 -14 -49 -11 -51 5 -5 21 33 31 73 11 43 -3 27
-20 -22z"/>
<path d="M1360 1229 c0 -15 33 -99 37 -95 6 6 -16 78 -28 91 -5 5 -9 7 -9 4z"/>
<path d="M1770 1193 c0 -5 9 -18 20 -28 11 -10 20 -14 20 -8 0 5 -9 18 -20 28
-11 10 -20 14 -20 8z"/>
<path d="M630 1164 c0 -8 32 -33 43 -34 5 0 5 4 2 10 -8 13 -45 33 -45 24z"/>
<path d="M1780 1135 c13 -14 26 -23 28 -20 7 7 -29 45 -41 45 -6 0 0 -11 13
-25z"/>
<path d="M630 1121 c0 -12 39 -35 46 -28 3 2 -7 12 -21 21 -14 9 -25 12 -25 7z"/>
<path d="M1760 1123 c0 -5 11 -20 25 -33 14 -13 25 -19 25 -13 0 5 -11 20 -25
33 -14 13 -25 19 -25 13z"/>
<path d="M1760 1083 c0 -5 12 -20 26 -34 24 -21 26 -22 16 -3 -13 25 -42 50
-42 37z"/>
<path d="M723 818 c-13 -6 -23 -15 -23 -20 0 -23 23 -48 43 -48 20 -1 20 -2 5
-13 -16 -12 -16 -15 3 -43 11 -17 19 -23 19 -13 0 8 -5 20 -11 26 -7 7 -8 13
0 17 6 4 19 -2 30 -13 17 -17 18 -21 5 -32 -19 -15 -18 -19 9 -51 21 -24 25
-25 39 -12 13 13 16 13 28 0 10 -13 10 -19 0 -31 -20 -24 4 -17 28 8 27 29 28
40 3 32 -24 -7 -37 11 -21 30 21 25 -2 17 -31 -11 l-27 -26 -12 23 c-11 20
-10 25 13 43 l26 21 -20 33 c-12 17 -24 32 -29 32 -4 0 -10 14 -13 30 -7 32
-24 37 -64 18z m41 -45 c-21 -16 -38 -12 -42 9 -4 22 40 40 52 20 6 -11 3 -19
-10 -29z m53 -42 c14 -23 5 -35 -14 -20 -14 12 -18 39 -5 39 4 0 13 -9 19 -19z"/>
<path d="M906 585 c-15 -19 -23 -35 -17 -35 12 0 55 59 48 66 -2 2 -16 -11
-31 -31z"/>
</g>
</svg>
