<?xml version="1.0" encoding="UTF-8" standalone="no"?>
<svg
   xmlns:dc="http://purl.org/dc/elements/1.1/"
   xmlns:cc="http://creativecommons.org/ns#"
   xmlns:rdf="http://www.w3.org/1999/02/22-rdf-syntax-ns#"
   xmlns:svg="http://www.w3.org/2000/svg"
   xmlns="http://www.w3.org/2000/svg"
   viewBox="0 0 192 106.66667"
   height="106.66667"
   width="192"
   xml:space="preserve"
   id="svg2"
   version="1.1"><metadata
     id="metadata8"><rdf:RDF><cc:Work
         rdf:about=""><dc:format>image/svg+xml</dc:format><dc:type
           rdf:resource="http://purl.org/dc/dcmitype/StillImage" /></cc:Work></rdf:RDF></metadata><defs
     id="defs6"><clipPath
       id="clipPath22"
       clipPathUnits="userSpaceOnUse"><path
         id="path20"
         d="M 0,80 H 144 V 0 H 0 Z" /></clipPath></defs><g
     transform="matrix(1.3333333,0,0,-1.3333333,0,106.66667)"
     id="g10"><g
       transform="translate(12.541,19.8052)"
       id="g12"><path
         id="path14"
         style="fill:#040606;fill-opacity:1;fill-rule:nonzero;stroke:none"
         d="m 0,0 v -0.71 h -4.541 v 6.242 h 4.398 V 4.823 H -3.781 V 2.809 h 2.831 v -0.71 h -2.831 l 0,-2.099 z" /></g><g
       id="g16"><g
         clip-path="url(#clipPath22)"
         id="g18"><g
           transform="translate(16.7295,23.8242)"
           id="g24"><path
             id="path26"
             style="fill:#040606;fill-opacity:1;fill-rule:nonzero;stroke:none"
             d="m 0,0 -0.152,-0.738 c -0.153,0.083 -0.352,0.124 -0.599,0.124 -0.203,0 -0.4,-0.059 -0.594,-0.176 -0.193,-0.116 -0.351,-0.293 -0.474,-0.529 -0.124,-0.237 -0.186,-0.522 -0.186,-0.857 v -2.553 h -0.76 V 0 h 0.618 l 0.104,-0.776 c 0.266,0.581 0.772,0.871 1.521,0.871 C -0.295,0.095 -0.121,0.063 0,0" /></g><g
           transform="translate(20.3457,19.9468)"
           id="g28"><path
             id="path30"
             style="fill:#040606;fill-opacity:1;fill-rule:nonzero;stroke:none"
             d="m 0,0 c 0.288,0.189 0.432,0.435 0.432,0.737 v 0.654 l -1.064,-0.2 C -1.057,1.116 -1.373,1.007 -1.582,0.865 -1.791,0.724 -1.896,0.542 -1.896,0.321 c 0,-0.196 0.077,-0.345 0.228,-0.449 0.152,-0.104 0.364,-0.156 0.637,-0.156 0.399,0 0.742,0.095 1.031,0.284 M 1.933,-0.255 1.886,-0.852 C 1.708,-0.915 1.518,-0.947 1.315,-0.947 c -0.247,0 -0.441,0.055 -0.584,0.162 -0.142,0.107 -0.233,0.286 -0.271,0.538 -0.146,-0.219 -0.359,-0.392 -0.641,-0.515 -0.282,-0.123 -0.578,-0.185 -0.888,-0.185 -0.469,0 -0.855,0.109 -1.16,0.327 -0.303,0.218 -0.456,0.531 -0.456,0.941 0,0.36 0.16,0.671 0.476,0.931 0.316,0.263 0.775,0.444 1.377,0.545 L 0.432,2.005 V 2.27 C 0.432,2.584 0.334,2.837 0.138,3.026 -0.059,3.215 -0.331,3.31 -0.68,3.31 -0.996,3.31 -1.271,3.234 -1.501,3.083 -1.732,2.932 -1.911,2.708 -2.038,2.411 l -0.561,0.407 c 0.127,0.353 0.363,0.634 0.708,0.842 0.345,0.208 0.749,0.313 1.211,0.313 0.564,0 1.017,-0.137 1.359,-0.408 0.342,-0.271 0.513,-0.671 0.513,-1.2 V 0.037 c 0,-0.113 0.029,-0.198 0.085,-0.255 0.057,-0.056 0.149,-0.085 0.276,-0.085 0.127,0 0.253,0.015 0.38,0.048" /></g><g
           transform="translate(24.0615,19.2705)"
           id="g32"><path
             id="path34"
             style="fill:#040606;fill-opacity:1;fill-rule:nonzero;stroke:none"
             d="M 0,0 C -0.367,0.18 -0.637,0.445 -0.808,0.799 L -0.19,1.225 C -0.083,0.947 0.104,0.739 0.37,0.601 0.637,0.461 0.95,0.393 1.311,0.393 1.685,0.393 1.97,0.458 2.166,0.591 2.362,0.723 2.46,0.89 2.46,1.093 2.46,1.275 2.368,1.421 2.185,1.532 2.001,1.643 1.678,1.738 1.216,1.82 0.76,1.902 0.398,2.001 0.133,2.118 c -0.266,0.117 -0.459,0.266 -0.579,0.445 -0.121,0.179 -0.181,0.402 -0.181,0.666 0,0.259 0.076,0.495 0.228,0.71 0.152,0.214 0.371,0.386 0.655,0.516 0.285,0.128 0.614,0.194 0.988,0.194 0.507,0 0.914,-0.093 1.221,-0.28 C 2.772,4.183 2.992,3.898 3.125,3.513 L 2.479,3.135 C 2.378,3.438 2.225,3.655 2.019,3.788 1.812,3.92 1.555,3.986 1.244,3.986 0.934,3.986 0.671,3.917 0.456,3.778 0.24,3.64 0.133,3.479 0.133,3.295 0.133,3.087 0.227,2.927 0.413,2.813 0.6,2.701 0.934,2.602 1.415,2.52 2.074,2.413 2.539,2.252 2.812,2.038 3.084,1.824 3.221,1.521 3.221,1.129 3.221,0.859 3.14,0.618 2.979,0.406 2.816,0.195 2.585,0.029 2.284,-0.09 1.983,-0.21 1.634,-0.271 1.234,-0.271 0.779,-0.271 0.367,-0.18 0,0" /></g><g
           transform="translate(35.1729,23.7251)"
           id="g36"><path
             id="path38"
             style="fill:#040606;fill-opacity:1;fill-rule:nonzero;stroke:none"
             d="M 0,0 C 0.275,-0.129 0.499,-0.33 0.67,-0.601 0.841,-0.872 0.927,-1.206 0.927,-1.604 V -4.63 H 0.166 v 2.951 c 0,0.409 -0.103,0.715 -0.309,0.913 -0.206,0.198 -0.476,0.297 -0.811,0.297 -0.254,0 -0.486,-0.061 -0.698,-0.184 -0.213,-0.123 -0.384,-0.302 -0.514,-0.539 -0.13,-0.236 -0.194,-0.519 -0.194,-0.846 V -4.63 h -0.76 v 2.951 c 0,0.409 -0.104,0.715 -0.31,0.913 -0.205,0.198 -0.476,0.297 -0.811,0.297 -0.229,0 -0.45,-0.058 -0.665,-0.175 -0.216,-0.116 -0.393,-0.297 -0.532,-0.543 -0.14,-0.246 -0.209,-0.551 -0.209,-0.917 V -4.63 h -0.76 v 4.729 h 0.665 l 0.047,-0.738 c 0.165,0.277 0.382,0.485 0.651,0.625 0.269,0.139 0.559,0.208 0.869,0.208 0.348,0 0.67,-0.079 0.964,-0.237 0.295,-0.157 0.518,-0.388 0.67,-0.69 0.14,0.302 0.367,0.533 0.684,0.69 0.317,0.158 0.639,0.237 0.969,0.237 C -0.571,0.194 -0.275,0.128 0,0" /></g><g
           transform="translate(41.9775,23.8242)"
           id="g40"><path
             id="path42"
             style="fill:#040606;fill-opacity:1;fill-rule:nonzero;stroke:none"
             d="m 0,0 v -4.729 h -0.665 l -0.048,0.72 c -0.316,-0.543 -0.883,-0.815 -1.7,-0.815 -0.513,0 -0.933,0.142 -1.259,0.426 -0.326,0.284 -0.489,0.719 -0.489,1.305 V 0 h 0.76 v -2.895 c 0,-0.459 0.095,-0.786 0.285,-0.979 0.19,-0.192 0.469,-0.287 0.836,-0.287 0.437,0 0.8,0.132 1.088,0.396 0.288,0.265 0.432,0.662 0.432,1.192 l 0,2.573 z" /></g><g
           transform="translate(44.1973,19.2705)"
           id="g44"><path
             id="path46"
             style="fill:#040606;fill-opacity:1;fill-rule:nonzero;stroke:none"
             d="M 0,0 C -0.367,0.18 -0.637,0.445 -0.808,0.799 L -0.19,1.225 C -0.083,0.947 0.104,0.739 0.37,0.601 0.637,0.461 0.95,0.393 1.311,0.393 1.685,0.393 1.97,0.458 2.166,0.591 2.362,0.723 2.46,0.89 2.46,1.093 2.46,1.275 2.368,1.421 2.185,1.532 2.001,1.643 1.678,1.738 1.216,1.82 0.76,1.902 0.398,2.001 0.133,2.118 c -0.266,0.117 -0.459,0.266 -0.579,0.445 -0.121,0.179 -0.181,0.402 -0.181,0.666 0,0.259 0.076,0.495 0.228,0.71 0.152,0.214 0.371,0.386 0.655,0.516 0.285,0.128 0.614,0.194 0.988,0.194 0.507,0 0.914,-0.093 1.221,-0.28 C 2.772,4.183 2.992,3.898 3.125,3.513 L 2.479,3.135 C 2.378,3.438 2.225,3.655 2.019,3.788 1.812,3.92 1.555,3.986 1.244,3.986 0.934,3.986 0.671,3.917 0.456,3.778 0.24,3.64 0.133,3.479 0.133,3.295 0.133,3.087 0.227,2.927 0.413,2.813 0.6,2.701 0.934,2.602 1.415,2.52 2.074,2.413 2.539,2.252 2.812,2.038 3.084,1.824 3.221,1.521 3.221,1.129 3.221,0.859 3.14,0.618 2.979,0.406 2.816,0.195 2.585,0.029 2.284,-0.09 1.983,-0.21 1.634,-0.271 1.234,-0.271 0.779,-0.271 0.367,-0.18 0,0" /></g><g
           transform="translate(58.4756,24.1079)"
           id="g48"><path
             id="path50"
             style="fill:#040606;fill-opacity:1;fill-rule:nonzero;stroke:none"
             d="m 0,0 -0.656,-0.53 c -0.19,0.416 -0.416,0.711 -0.679,0.884 -0.263,0.174 -0.622,0.261 -1.078,0.261 -0.482,0 -0.86,-0.099 -1.136,-0.298 -0.275,-0.198 -0.413,-0.453 -0.413,-0.762 0,-0.201 0.054,-0.368 0.161,-0.501 0.109,-0.132 0.287,-0.248 0.537,-0.345 0.25,-0.097 0.597,-0.185 1.04,-0.261 0.83,-0.137 1.417,-0.345 1.763,-0.624 0.345,-0.277 0.518,-0.661 0.518,-1.153 0,-0.354 -0.1,-0.664 -0.299,-0.931 -0.2,-0.268 -0.484,-0.476 -0.851,-0.624 -0.367,-0.149 -0.792,-0.224 -1.273,-0.224 -0.633,0 -1.173,0.124 -1.619,0.37 -0.448,0.245 -0.787,0.573 -1.022,0.984 l 0.655,0.528 c 0.171,-0.371 0.423,-0.66 0.756,-0.865 0.332,-0.204 0.748,-0.307 1.249,-0.307 0.494,0 0.887,0.089 1.178,0.27 0.291,0.179 0.438,0.434 0.438,0.76 0,0.279 -0.127,0.499 -0.381,0.663 -0.253,0.164 -0.702,0.303 -1.349,0.416 -0.836,0.145 -1.428,0.353 -1.776,0.625 -0.349,0.27 -0.523,0.649 -0.523,1.134 0,0.334 0.095,0.643 0.285,0.927 0.19,0.284 0.462,0.509 0.817,0.676 0.354,0.168 0.766,0.251 1.235,0.251 C -1.302,1.324 -0.494,0.883 0,0" /></g><g
           transform="translate(63.1172,19.4258)"
           id="g52"><path
             id="path54"
             style="fill:#040606;fill-opacity:1;fill-rule:nonzero;stroke:none"
             d="m 0,0 c -0.316,-0.284 -0.725,-0.426 -1.225,-0.426 -0.386,0 -0.702,0.105 -0.945,0.313 -0.244,0.208 -0.369,0.526 -0.376,0.955 v 2.904 h -0.949 v 0.652 h 0.949 v 1.136 l 0.761,0.208 V 4.398 h 1.757 V 3.746 H -1.785 V 0.974 c 0,-0.226 0.064,-0.398 0.194,-0.515 0.13,-0.117 0.303,-0.175 0.518,-0.175 0.304,0 0.573,0.116 0.807,0.35 z" /></g><g
           transform="translate(68.4814,23.8242)"
           id="g56"><path
             id="path58"
             style="fill:#040606;fill-opacity:1;fill-rule:nonzero;stroke:none"
             d="m 0,0 v -4.729 h -0.665 l -0.048,0.72 c -0.316,-0.543 -0.883,-0.815 -1.7,-0.815 -0.513,0 -0.933,0.142 -1.259,0.426 -0.326,0.284 -0.489,0.719 -0.489,1.305 V 0 h 0.76 v -2.895 c 0,-0.459 0.095,-0.786 0.285,-0.979 0.19,-0.192 0.469,-0.287 0.836,-0.287 0.437,0 0.8,0.132 1.088,0.396 0.288,0.265 0.432,0.662 0.432,1.192 l 0,2.573 z" /></g><g
           transform="translate(73.3691,20.1357)"
           id="g60"><path
             id="path62"
             style="fill:#040606;fill-opacity:1;fill-rule:nonzero;stroke:none"
             d="M 0,0 C 0.27,0.315 0.404,0.738 0.404,1.268 V 1.38 C 0.404,1.91 0.27,2.333 0,2.648 -0.269,2.963 -0.632,3.121 -1.088,3.121 -1.55,3.121 -1.914,2.959 -2.18,2.635 -2.446,2.309 -2.579,1.872 -2.579,1.324 c 0,-0.548 0.133,-0.986 0.399,-1.311 0.266,-0.325 0.63,-0.486 1.092,-0.486 0.456,0 0.819,0.158 1.088,0.473 M 1.164,5.864 V -1.041 H 0.499 l -0.048,0.823 c -0.139,-0.277 -0.352,-0.5 -0.64,-0.667 -0.289,-0.166 -0.617,-0.251 -0.984,-0.251 -0.665,0 -1.192,0.22 -1.582,0.658 -0.39,0.439 -0.584,1.039 -0.584,1.802 0,0.762 0.194,1.363 0.584,1.801 0.39,0.439 0.917,0.659 1.582,0.659 0.348,0 0.66,-0.076 0.936,-0.228 C 0.038,3.404 0.252,3.202 0.404,2.951 v 2.913 z" /></g><g
           transform="translate(77.3027,22.8877)"
           id="g64"><path
             id="path66"
             style="fill:#040606;fill-opacity:1;fill-rule:nonzero;stroke:none"
             d="M 0,0 C -0.257,-0.246 -0.413,-0.592 -0.471,-1.04 H 2.408 C 2.357,-0.6 2.212,-0.253 1.971,-0.005 1.73,0.244 1.411,0.369 1.012,0.369 0.594,0.369 0.257,0.246 0,0 m 3.102,-1.712 h -3.581 c 0.043,-0.479 0.204,-0.851 0.479,-1.116 0.275,-0.264 0.632,-0.397 1.068,-0.397 0.349,0 0.639,0.059 0.869,0.179 0.232,0.121 0.389,0.294 0.471,0.522 L 3.045,-2.856 C 2.854,-3.19 2.602,-3.446 2.284,-3.622 1.968,-3.798 1.562,-3.888 1.068,-3.888 c -0.715,0 -1.277,0.218 -1.685,0.654 -0.409,0.435 -0.613,1.036 -0.613,1.806 0,0.769 0.195,1.371 0.584,1.806 0.389,0.436 0.942,0.654 1.658,0.654 0.443,0 0.826,-0.099 1.149,-0.294 0.323,-0.196 0.567,-0.461 0.732,-0.795 0.165,-0.335 0.247,-0.709 0.247,-1.125 0,-0.176 -0.013,-0.353 -0.038,-0.53" /></g><g
           transform="translate(85.6094,23.4546)"
           id="g68"><path
             id="path70"
             style="fill:#040606;fill-opacity:1;fill-rule:nonzero;stroke:none"
             d="m 0,0 c 0.348,-0.308 0.522,-0.752 0.522,-1.333 v -3.026 h -0.76 v 2.761 c 0,0.492 -0.106,0.848 -0.319,1.069 -0.212,0.221 -0.495,0.331 -0.849,0.331 -0.254,0 -0.491,-0.054 -0.713,-0.165 -0.222,-0.111 -0.403,-0.29 -0.546,-0.539 -0.143,-0.249 -0.214,-0.563 -0.214,-0.941 v -2.516 h -0.76 V 0.37 h 0.665 l 0.047,-0.738 c 0.158,0.284 0.377,0.493 0.656,0.629 0.279,0.136 0.592,0.204 0.941,0.204 C -0.792,0.465 -0.349,0.309 0,0" /></g><g
           transform="translate(90.7939,19.4258)"
           id="g72"><path
             id="path74"
             style="fill:#040606;fill-opacity:1;fill-rule:nonzero;stroke:none"
             d="m 0,0 c -0.316,-0.284 -0.725,-0.426 -1.225,-0.426 -0.386,0 -0.702,0.105 -0.945,0.313 -0.244,0.208 -0.369,0.526 -0.376,0.955 v 2.904 h -0.949 v 0.652 h 0.949 v 1.136 l 0.761,0.208 V 4.398 h 1.757 V 3.746 H -1.785 V 0.974 c 0,-0.226 0.064,-0.398 0.194,-0.515 0.13,-0.117 0.303,-0.175 0.518,-0.175 0.304,0 0.573,0.116 0.807,0.35 z" /></g><g
           transform="translate(101.7656,19.0952)"
           id="g76"><path
             id="path78"
             style="fill:#040606;fill-opacity:1;fill-rule:nonzero;stroke:none"
             d="M 0,0 H -0.94 L -3.563,4.181 -4.228,5.41 H -4.237 L -4.199,4.407 V 0 h -0.722 v 6.242 h 0.941 l 2.612,-4.161 0.675,-1.248 h 0.008 l -0.038,1.001 v 4.408 l 0.723,0 z" /></g><g
           transform="translate(104.6885,22.8877)"
           id="g80"><path
             id="path82"
             style="fill:#040606;fill-opacity:1;fill-rule:nonzero;stroke:none"
             d="M 0,0 C -0.257,-0.246 -0.413,-0.592 -0.471,-1.04 H 2.408 C 2.357,-0.6 2.212,-0.253 1.971,-0.005 1.73,0.244 1.411,0.369 1.012,0.369 0.594,0.369 0.257,0.246 0,0 m 3.102,-1.712 h -3.581 c 0.043,-0.479 0.204,-0.851 0.479,-1.116 0.275,-0.264 0.632,-0.397 1.068,-0.397 0.349,0 0.639,0.059 0.869,0.179 0.232,0.121 0.389,0.294 0.471,0.522 L 3.045,-2.856 C 2.854,-3.19 2.602,-3.446 2.284,-3.622 1.968,-3.798 1.562,-3.888 1.068,-3.888 c -0.715,0 -1.277,0.218 -1.685,0.654 -0.409,0.435 -0.613,1.036 -0.613,1.806 0,0.769 0.195,1.371 0.584,1.806 0.389,0.436 0.942,0.654 1.658,0.654 0.443,0 0.826,-0.099 1.149,-0.294 0.323,-0.196 0.567,-0.461 0.732,-0.795 0.165,-0.335 0.247,-0.709 0.247,-1.125 0,-0.176 -0.013,-0.353 -0.038,-0.53" /></g><g
           transform="translate(112.2637,19.4258)"
           id="g84"><path
             id="path86"
             style="fill:#040606;fill-opacity:1;fill-rule:nonzero;stroke:none"
             d="m 0,0 c -0.316,-0.284 -0.725,-0.426 -1.225,-0.426 -0.386,0 -0.702,0.105 -0.945,0.313 -0.244,0.208 -0.369,0.526 -0.376,0.955 v 2.904 h -0.949 v 0.652 h 0.949 v 1.136 l 0.761,0.208 V 4.398 h 1.757 V 3.746 H -1.785 V 0.974 c 0,-0.226 0.064,-0.398 0.194,-0.515 0.13,-0.117 0.303,-0.175 0.518,-0.175 0.304,0 0.573,0.116 0.807,0.35 z" /></g><g
           transform="translate(120.6436,23.8242)"
           id="g88"><path
             id="path90"
             style="fill:#040606;fill-opacity:1;fill-rule:nonzero;stroke:none"
             d="m 0,0 -1.652,-4.729 h -0.761 l -1.339,3.765 -1.264,-3.765 H -5.775 L -7.429,0 h 0.846 L -5.387,-3.85 -4.095,0 h 0.761 L -2.042,-3.85 -0.846,0 Z" /></g><g
           transform="translate(122.7207,22.7837)"
           id="g92"><path
             id="path94"
             style="fill:#040606;fill-opacity:1;fill-rule:nonzero;stroke:none"
             d="m 0,0 c -0.272,-0.322 -0.409,-0.763 -0.409,-1.324 0,-0.562 0.137,-1.002 0.409,-1.324 0.271,-0.321 0.648,-0.482 1.13,-0.482 0.481,0 0.858,0.161 1.131,0.482 0.272,0.322 0.408,0.762 0.408,1.324 C 2.669,-0.763 2.533,-0.322 2.261,0 1.988,0.321 1.611,0.482 1.13,0.482 0.648,0.482 0.271,0.321 0,0 m 2.816,0.482 c 0.409,-0.435 0.613,-1.037 0.613,-1.806 0,-0.77 -0.204,-1.371 -0.613,-1.806 -0.408,-0.436 -0.97,-0.654 -1.686,-0.654 -0.716,0 -1.277,0.218 -1.686,0.654 -0.409,0.435 -0.613,1.036 -0.613,1.806 0,0.769 0.204,1.371 0.613,1.806 0.409,0.436 0.97,0.654 1.686,0.654 0.716,0 1.278,-0.218 1.686,-0.654" /></g><g
           transform="translate(130.459,23.8242)"
           id="g96"><path
             id="path98"
             style="fill:#040606;fill-opacity:1;fill-rule:nonzero;stroke:none"
             d="m 0,0 -0.152,-0.738 c -0.153,0.083 -0.352,0.124 -0.599,0.124 -0.203,0 -0.4,-0.059 -0.594,-0.176 -0.193,-0.116 -0.351,-0.293 -0.474,-0.529 -0.124,-0.237 -0.186,-0.522 -0.186,-0.857 v -2.553 h -0.76 V 0 h 0.618 l 0.104,-0.776 c 0.266,0.581 0.772,0.871 1.521,0.871 C -0.295,0.095 -0.121,0.063 0,0" /></g><g
           transform="translate(133.4824,21.4316)"
           id="g100"><path
             id="path102"
             style="fill:#040606;fill-opacity:1;fill-rule:nonzero;stroke:none"
             d="m 0,0 -1.007,-1.002 v -1.334 h -0.76 v 6.904 h 0.76 v -4.626 l 2.46,2.451 h 0.95 L 0.551,0.548 2.518,-2.336 H 1.596 Z" /></g><g
           transform="translate(77,39.9746)"
           id="g104"><path
             id="path106"
             style="fill:#040606;fill-opacity:1;fill-rule:nonzero;stroke:none"
             d="m 0,0 v -2.974 c 0,-0.552 -0.448,-1.001 -1,-1.001 h -19 c -0.552,0 -1,0.449 -1,1.001 v 29.99 c 0,0.552 0.447,1.001 1,1.001 l 18,0.008 c 0.552,0.001 1,-0.447 1,-1.001 v -3.002 c 0,-0.553 -0.448,-1.001 -1,-1.001 h -14 v -8.979 h 11 c 0.552,0 1,-0.448 1,-1.001 V 10.039 C -4,9.486 -4.448,9.038 -5,9.038 H -16 V 1.001 H -1 C -0.448,1.001 0,0.553 0,0" /></g><g
           transform="translate(115.999,36)"
           id="g108"><path
             id="path110"
             style="fill:#040606;fill-opacity:1;fill-rule:nonzero;stroke:none"
             d="m 0,0 h -2.96 c -0.552,0 -0.999,0.447 -1,0.999 l -0.039,30 C -4,31.551 -3.552,32 -2.999,32 h 4.403 c 0.367,0 0.705,-0.201 0.88,-0.524 L 15,8.002 V 31 c 0,0.552 0.448,1 1.001,1 h 3 c 0.552,0 1,-0.448 1,-1 V 1.029 c 0,-0.552 -0.448,-1 -1,-1 h -4.417 c -0.36,0 -0.693,0.194 -0.871,0.508 L 1,23.007 V 1 C 1,0.448 0.552,0 0,0" /></g><g
           transform="translate(31,71)"
           id="g112"><path
             id="path114"
             style="fill:#6cc747;fill-opacity:1;fill-rule:nonzero;stroke:none"
             d="M 0,0 V -11.76 L -1.34,-15 H -4.66 L -6,-11.76 V 0 c 0,0.552 0.448,1 1,1 h 4 C -0.448,1 0,0.552 0,0" /></g><g
           transform="translate(16.707,67.312)"
           id="g116"><path
             id="path118"
             style="fill:#4eafe6;fill-opacity:1;fill-rule:nonzero;stroke:none"
             d="m 0,0 8.295,-8.071 1.343,-3.239 -2.347,-2.347 -3.239,1.343 -8.071,8.295 c -0.381,0.392 -0.377,1.018 0.01,1.405 l 2.604,2.604 C -1.018,0.377 -0.392,0.381 0,0" /></g><g
           transform="translate(9,55)"
           id="g120"><path
             id="path122"
             style="fill:#e71294;fill-opacity:1;fill-rule:nonzero;stroke:none"
             d="M 0,0 H 11.76 L 15,-1.34 V -4.66 L 11.76,-6 H 0 c -0.552,0 -1,0.448 -1,1 v 4 c 0,0.552 0.448,1 1,1" /></g><g
           transform="translate(12.4683,40.7109)"
           id="g124"><path
             id="path126"
             style="fill:#f46e25;fill-opacity:1;fill-rule:nonzero;stroke:none"
             d="M 0,0 8.291,8.291 11.529,9.634 13.877,7.287 12.534,4.048 4.215,-4.046 C 3.833,-4.418 3.225,-4.425 2.835,-4.061 l -2.81,2.623 C -0.389,-1.052 -0.4,-0.4 0,0" /></g><g
           transform="translate(25,33)"
           id="g128"><path
             id="path130"
             style="fill:#4eafe6;fill-opacity:1;fill-rule:nonzero;stroke:none"
             d="M 0,0 V 11.76 L 1.34,15 H 4.66 L 6,11.76 V 0 C 6,-0.552 5.552,-1 5,-1 H 1 C 0.448,-1 0,-0.552 0,0" /></g><g
           transform="translate(39.293,36.688)"
           id="g132"><path
             id="path134"
             style="fill:#6cc747;fill-opacity:1;fill-rule:nonzero;stroke:none"
             d="m 0,0 -8.295,8.071 -1.343,3.239 2.347,2.347 3.239,-1.343 8.071,-8.295 C 4.4,3.627 4.396,3.001 4.009,2.614 L 1.405,0.01 C 1.018,-0.377 0.392,-0.381 0,0" /></g><g
           transform="translate(47,49)"
           id="g136"><path
             id="path138"
             style="fill:#f46e25;fill-opacity:1;fill-rule:nonzero;stroke:none"
             d="M 0,0 H -11.76 L -15,1.34 V 4.66 L -11.76,6 H 0 C 0.552,6 1,5.552 1,5 V 1 C 1,0.448 0.552,0 0,0" /></g><g
           transform="translate(43.312,63.293)"
           id="g140"><path
             id="path142"
             style="fill:#e71294;fill-opacity:1;fill-rule:nonzero;stroke:none"
             d="m 0,0 -8.071,-8.295 -3.239,-1.343 -2.347,2.347 1.343,3.239 8.295,8.071 c 0.392,0.381 1.018,0.377 1.405,-0.01 L -0.01,1.405 C 0.377,1.018 0.381,0.392 0,0" /></g><g
           transform="translate(106.085,44.6997)"
           id="g144"><path
             id="path146"
             style="fill:#040606;fill-opacity:1;fill-rule:nonzero;stroke:none"
             d="m 0,0 c 0,-1.86 -0.514,-3.51 -1.521,-4.93 -0.997,-1.4 -2.427,-2.5 -4.26,-3.27 -1.802,-0.76 -3.907,-1.15 -6.264,-1.15 -3.082,0 -5.771,0.64 -7.967,1.9 -1.28,0.744 -2.447,1.813 -3.399,2.918 -0.38,0.44 -0.306,1.109 0.159,1.457 l 2.324,1.743 c 0.451,0.339 1.085,0.229 1.418,-0.227 0.524,-0.717 1.093,-1.301 1.885,-1.811 1.491,-0.96 3.404,-1.45 5.67,-1.45 2.246,0 4.039,0.42 5.338,1.26 1.249,0.8 1.853,1.91 1.853,3.37 0,1.21 -0.524,2.16 -1.591,2.88 -1.138,0.77 -3.233,1.44 -6.234,1.99 -0.534,0.1 -1.048,0.2 -1.531,0.31 -3.283,0.72 -5.63,1.67 -7.151,2.9 -1.772,1.44 -2.679,3.47 -2.679,6.04 0,1.75 0.484,3.39 1.441,4.88 0.947,1.48 2.326,2.67 4.089,3.54 1.752,0.86 3.807,1.3 6.113,1.3 4.953,0 9.16,-1.839 11.691,-5.51 0.311,-0.452 0.231,-1.065 -0.208,-1.394 l -2.358,-1.768 c -0.468,-0.352 -1.126,-0.217 -1.446,0.272 -0.873,1.337 -1.848,2.009 -2.794,2.66 -1.159,0.81 -2.79,1.21 -4.845,1.21 -2.165,0 -3.887,-0.46 -5.106,-1.38 -1.189,-0.9 -1.762,-2.01 -1.762,-3.39 0,-0.9 0.211,-1.62 0.664,-2.19 0.453,-0.58 1.249,-1.11 2.347,-1.56 1.148,-0.47 2.78,-0.89 4.854,-1.26 0.554,-0.1 1.088,-0.2 1.591,-0.32 3.233,-0.69 5.54,-1.65 7.04,-2.9 C -0.886,4.65 0,2.59 0,0" /></g></g></g><text
       id="text150"
       style="font-variant:normal;font-weight:bold;font-stretch:normal;font-size:10px;font-family:'Work Sans';-inkscape-font-specification:WorkSans-Bold;writing-mode:lr-tb;fill:#040606;fill-opacity:1;fill-rule:nonzero;stroke:none"
       transform="matrix(1,0,0,-1,107.1001,7.98)"><tspan
         id="tspan148"
         y="0"
         x="0 6.8400002 11.08 16.9 23.18">Breda</tspan></text>
</g></svg>